<?xml version="1.0" standalone="no"?>
<!DOCTYPE svg PUBLIC "-//W3C//DTD SVG 1.1//EN" "http://www.w3.org/Graphics/SVG/1.1/DTD/svg11.dtd" >
<svg xmlns="http://www.w3.org/2000/svg" xmlns:xlink="http://www.w3.org/1999/xlink" version="1.1">
<metadata></metadata>
<defs>
<font id="buenardbold" horiz-adv-x="940" >
<font-face units-per-em="2048" ascent="1638" descent="-410" />
<missing-glyph horiz-adv-x="419" />
<glyph horiz-adv-x="0" />
<glyph unicode="&#xd;" horiz-adv-x="681" />
<glyph unicode=" "  horiz-adv-x="419" />
<glyph unicode="&#x09;" horiz-adv-x="419" />
<glyph unicode="&#xa0;" horiz-adv-x="419" />
<glyph unicode="!" horiz-adv-x="555" d="M106 118.5q0 67.5 47.5 109.5t123 42t124 -42t48.5 -109.5t-48.5 -109.5t-124 -42t-123 42t-47.5 109.5zM133 1352l27 32q47 0 144 -12t124 -24q-39 -457 -63 -715l-21 -211l-111 -27l-34 25l-15 313z" />
<glyph unicode="&#x22;" horiz-adv-x="749" d="M72 1468l49 23q39 0 102.5 -11.5t89.5 -23.5q0 -115 -77 -479l-101 -21l-33 25zM436 1468l49 23q39 0 102.5 -11.5t90.5 -23.5q0 -115 -78 -479l-100 -21l-33 25z" />
<glyph unicode="#" horiz-adv-x="1181" d="M86 346l29 152h215q4 33 18 123t21 141h-224l27 151h219l45 322h142l-48 -322h201l47 322h142l-48 -322h224l-29 -151h-215q-8 -47 -20.5 -135t-18.5 -129h223l-28 -152h-215l-52 -346h-141l49 346h-203l-49 -346h-139l49 346h-221zM469 498h203q12 63 39 264h-203z" />
<glyph unicode="$" horiz-adv-x="1114" d="M152 254q0 80 14 190l102 21q20 -268 221 -301l19 379q-207 104 -270 180q-72 84 -72 182q0 145 103.5 224t269.5 88l10 186l98 10l-10 -199q70 -6 285 -55q-14 -154 -48 -305l-96 -8q-12 164 -33 209q-39 31 -112 43l-17 -320q4 -2 12.5 -5t40 -19.5t67.5 -37t87 -56 t78 -68.5q72 -84 72 -182q0 -158 -107.5 -251t-281.5 -110l-9 -166l-98 -8l8 172q-165 9 -327 70q-6 57 -6 137zM410 961q0 -66 110 -132l15 273q-125 -16 -125 -141zM588 166q127 31 127 176q0 76 -111 147z" />
<glyph unicode="%" horiz-adv-x="1650" d="M102 925.5q0 143.5 91.5 233.5t234.5 90t233.5 -87t90.5 -230.5t-91.5 -234.5t-234.5 -91t-233.5 88t-90.5 231.5zM289 928.5q0 -113.5 41 -171t98 -57.5t97 57.5t40 171t-40 170t-97 56.5t-98 -56.5t-41 -170zM367 -33l757 1282h160l-758 -1282h-159zM899 286.5 q0 143.5 91 233.5t234.5 90t233.5 -87t90 -230t-91 -234.5t-234.5 -91.5t-233.5 88t-90 231.5zM1085 288.5q0 -114.5 41 -171t98.5 -56.5t97.5 57.5t40 171t-40 170t-97.5 56.5t-98.5 -56.5t-41 -171z" />
<glyph unicode="&#x26;" horiz-adv-x="1314" d="M72 301q0 236 266 344q-2 2 -6 7t-6 7q-61 68 -88 130.5t-27 156.5q0 127 104.5 215t243.5 88t239.5 -72.5t100.5 -187.5t-87 -201t-200 -112q10 -12 33 -35q156 -176 289 -313q37 61 37 137t-62 192l68 43q139 -115 207 -202q-45 -80 -176 -246q119 -115 171 -153 t160 -38l-14 -75h-338q-29 0 -131 98q-143 -117 -309 -117q-207 0 -341 84t-134 250zM336 351q0 -122 64.5 -197.5t167 -75.5t212.5 82q-102 106 -368 403q-76 -90 -76 -212zM444 999q0 -109 109 -249q43 25 76 87t33 136t-34 121t-82 47t-75 -40.5t-27 -101.5z" />
<glyph unicode="'" horiz-adv-x="372" d="M102 1468l29 23q33 0 82 -11.5t70 -23.5q0 -104 -80 -479l-58 -10l-20 14z" />
<glyph unicode="(" horiz-adv-x="673" d="M133 510q0 272 118 497.5t316 356.5l51 -57q-122 -142 -171.5 -332.5t-49.5 -466t52.5 -469t175.5 -336.5l-58 -51q-199 133 -316.5 359.5t-117.5 498.5z" />
<glyph unicode=")" horiz-adv-x="673" d="M49 -297q123 143 175 336.5t52 469t-49 466t-172 332.5l51 57q199 -131 317 -356.5t118 -497.5t-118 -498.5t-317 -359.5z" />
<glyph unicode="*" horiz-adv-x="931" d="M86 1182q10 33 34.5 82t43.5 65q63 -23 233 -115l-16 259l41 18q96 0 164 -29q0 -57 -35 -254l237 95l29 -35q29 -84 29 -119t-2 -47q-51 -16 -254 -45l164 -197l-25 -39q-29 -23 -77 -48t-72 -28q-39 53 -121 230l-137 -217l-46 10q-29 20 -67.5 59t-48.5 60 q29 43 180 186l-250 64z" />
<glyph unicode="+" horiz-adv-x="950" d="M88 371v155h305v336h164v-336h305v-155h-305v-340h-164v340h-305z" />
<glyph unicode="," horiz-adv-x="522" d="M72 98q25 35 75 81t86 67q72 -6 139.5 -57.5t67.5 -130t-97 -214t-189 -217.5l-62 49q137 207 137 304q0 45 -129 55z" />
<glyph unicode="-" horiz-adv-x="645" d="M68 379l30 182h480l-29 -182h-481z" />
<glyph unicode="." horiz-adv-x="505" d="M82 118.5q0 67.5 47 109.5t123 42t124 -42t48 -109.5t-48 -109.5t-124 -42t-123 42t-47 109.5z" />
<glyph unicode="/" horiz-adv-x="903" d="M55 -268l641 1634l152 -80l-641 -1634z" />
<glyph unicode="0" horiz-adv-x="1148" d="M59 440q0 209 144.5 340t373 131t371 -126t142.5 -334.5t-144.5 -344t-373 -135.5t-371 130t-142.5 339zM334 445q0 -173 70.5 -264t171 -91t170 91t69.5 264t-69.5 260.5t-170 87.5t-171 -87.5t-70.5 -260.5z" />
<glyph unicode="1" horiz-adv-x="661" d="M39 813q61 23 187 54.5t198 43.5l43 -43v-702q0 -45 37 -66q33 -16 106 -34l25 -7l-17 -75q-135 16 -280 16t-281 -16l-16 75q98 20 137 41t39 66v504q0 41 -15.5 57t-54.5 16h-96z" />
<glyph unicode="2" horiz-adv-x="899" d="M51 106q207 156 295 246q143 150 143 285q0 74 -28.5 118t-96 44t-116.5 -31q-20 -41 -20.5 -112.5t1.5 -92.5l-104 -16q-16 39 -37.5 133t-26.5 139q215 92 356.5 92t242 -63.5t100.5 -184t-55.5 -196.5t-167.5 -164q-35 -29 -215 -137l8 -19h319q20 18 56 77t45 89 l86 -14q-2 -33 -19.5 -146.5t-25.5 -152.5h-728z" />
<glyph unicode="3" horiz-adv-x="870" d="M16 -285q8 102 70 297l96 -16q0 -166 8 -201q66 -31 153 -31t144.5 67t57.5 169q0 152 -80 204t-227 52l4 90q94 23 174 100t80 179q0 174 -125 174q-92 0 -142 -23q-18 -49 -18 -113.5t4 -89.5l-96 -16q-16 35 -37 130t-27 142q221 82 362.5 82t239 -62.5t97.5 -178 t-82 -193.5t-191 -110v-19q135 0 234.5 -82t99.5 -239.5t-131 -266t-304 -108.5t-364 63z" />
<glyph unicode="4" horiz-adv-x="942" d="M10 96l537 789h211v-748h157l-36 -137h-121v-154q0 -45 37 -67q37 -20 90 -39l-17 -76q-123 16 -210 16.5t-306 -16.5l-16 76q98 20 137 40.5t39 65.5v154h-438zM184 156l11 -19h317v510l-8 2l-19 -47z" />
<glyph unicode="5" horiz-adv-x="829" d="M-6 -285q4 43 28.5 151.5t40.5 151.5l101 -16q-4 -63 -4 -118.5t8 -86.5q84 -33 167 -33t135 74t52 185q0 272 -258 272q-45 0 -98 -8l-68 82l88 514l396 22q115 8 168 35l24 -31q-2 -20 -22.5 -83.5t-32.5 -86.5h-375l-43 -309l12 -14q58 10 111 10q131 0 229 -66 q137 -92 138 -305q0 -174 -126 -288.5t-309 -114.5q-133 0 -362 63z" />
<glyph unicode="6" horiz-adv-x="972" d="M63 446.5q0 200.5 61.5 349t164.5 244.5q213 197 497 209l9 -78q-225 -35 -343 -212t-118 -488q0 -215 67 -328q41 -63 110 -63t106.5 73.5t37.5 193.5t-40 204t-110.5 84t-123.5 -35l-8 43q80 102 168 102q178 0 277.5 -99t99.5 -273t-123 -288t-299 -114 q-211 0 -322 137.5t-111 338z" />
<glyph unicode="7" horiz-adv-x="847" d="M39 737.5q0 108.5 6 157.5q86 -16 213 -16h547l55 -74q-481 -745 -491 -1124q-100 -29 -244 -29l-29 35q25 319 535 1026l-10 14h-433q-25 -51 -43 -188l-98 8q-8 82 -8 190.5z" />
<glyph unicode="8" horiz-adv-x="968" d="M61 291q0 104 71 187t183 128q-96 63 -150 137t-54 197t113.5 216t268 93t256 -70.5t101.5 -201.5q0 -100 -60.5 -178t-154.5 -121q84 -47 135 -86t94 -111.5t43 -163.5q0 -150 -131 -248t-308 -98t-292 81t-115 239zM311 311q0 -102 45 -166.5t125 -64.5t126 54 t46 119.5t-18.5 106.5t-62.5 79t-72.5 56.5t-96.5 59.5q-92 -98 -92 -244zM350 972q0 -77 49.5 -133.5t139.5 -107.5q80 104 79 209q0 199 -143 199q-55 0 -90 -45t-35 -122z" />
<glyph unicode="9" horiz-adv-x="976" d="M51 506q0 164 127 284.5t299 120.5q213 0 320.5 -142t107.5 -372q0 -174 -64.5 -317t-172.5 -234q-215 -182 -504 -194l-6 76q174 29 297 143.5t163 323.5q-90 -48 -190 -48q-170 0 -273.5 97.5t-103.5 261.5zM313 533.5q0 -119.5 40 -198.5t121 -79t159 49q2 26 2 98 q0 397 -166 398q-78 0 -117 -74t-39 -193.5z" />
<glyph unicode=":" horiz-adv-x="505" d="M82 118.5q0 67.5 47 109.5t123 42t124 -42t48 -109.5t-48 -109.5t-124 -42t-123 42t-47 109.5zM82 723q0 68 47 109.5t123 41.5t124 -41.5t48 -109.5t-48 -110t-124 -42t-123 42t-47 110z" />
<glyph unicode=";" horiz-adv-x="522" d="M72 98q25 35 75 81t86 67q72 -6 139.5 -57.5t67.5 -130t-97 -214t-189 -217.5l-62 49q137 207 137 304q0 45 -129 55zM82 723q0 68 47 109.5t123 41.5t124 -41.5t48 -109.5t-48 -110t-124 -42t-123 42t-47 110z" />
<glyph unicode="&#x3c;" horiz-adv-x="978" d="M94 373v119l791 405v-170l-594 -295l594 -295v-170z" />
<glyph unicode="=" horiz-adv-x="950" d="M96 190v154h758v-154h-758zM96 555v154h758v-154h-758z" />
<glyph unicode="&#x3e;" horiz-adv-x="978" d="M94 -33v170l594 295l-594 295v170l791 -405v-119z" />
<glyph unicode="?" horiz-adv-x="905" d="M109 1268q217 96 373.5 96t249.5 -77t93 -228q0 -59 -37.5 -119.5t-74.5 -95.5t-103.5 -88.5t-93.5 -79.5q-86 -78 -86 -139l10 -97l-80 -67q-90 90 -129 198q4 63 42 110.5t52.5 64t62.5 62.5t56 54q135 135 135.5 219t-41.5 131.5t-114 47.5t-110 -55.5t-42 -190.5 l-110 -23q-53 190 -53 277zM221 118.5q0 67.5 47 109.5t123 42t124 -42t48 -109.5t-48 -109.5t-124 -42t-123 42t-47 109.5z" />
<glyph unicode="@" horiz-adv-x="1800" d="M78 385q0 242 132 441.5t351 311t471 111.5q340 0 540 -178t200 -481q0 -102 -142.5 -248.5t-308.5 -251.5q-186 -123 -277 -123q-68 0 -67 82q0 49 22 133l29 123l-12 4q-164 -246 -271 -309q-51 -33 -100 -33q-178 0 -178 205q0 272 191.5 497.5t433.5 225.5 q88 0 243 -29l33 -43q-33 -59 -53 -123l-113 -497q0 -4 -4 -19.5t-4 -37t25.5 -21.5t91.5 51q113 82 187.5 188.5t74.5 210.5q0 252 -149.5 400.5t-413.5 148.5q-319 0 -530.5 -204.5t-211.5 -526t167 -502t489 -180.5q86 0 186 33t172 82l49 -62q-82 -74 -211 -128 t-243 -54q-377 0 -588 217t-211 586zM672 222.5q0 -109.5 49 -109.5q59 0 157.5 114.5t194.5 270.5q14 39 30.5 126t20.5 132q-25 16 -122 16t-177 -96t-116.5 -220t-36.5 -233.5z" />
<glyph unicode="A" horiz-adv-x="1335" d="M-18 61q92 18 116.5 43t59.5 123l401 1094q96 18 182 61l447 -1155q37 -96 61.5 -121.5t104.5 -44.5l-15 -79q-141 18 -275 18t-288 -18l-12 79q68 20 116 39t48 54q0 14 -6 28l-105 285h-414l-96 -285q-4 -10 -4 -28q0 -37 51 -56l115 -37l-12 -79q-133 18 -225.5 18 t-233.5 -18zM449 598h321l-137 381l-23 86l-14 6l-10 -78z" />
<glyph unicode="B" horiz-adv-x="1263" d="M98 61q78 16 113 36t35 65v1001q0 45 -25 58q-39 23 -102 36l-21 7l17 73q21 -6 78 -6l399 17q506 0 506 -304q0 -133 -84 -199.5t-197 -88.5v-15q150 -8 262.5 -95t112.5 -269t-153.5 -287.5t-385.5 -105.5l-284 16q-102 0 -254 -16zM510 186q0 -53 43 -76.5t94 -23.5 q106 0 181 71.5t75 211.5q0 284 -264 284h-2h-127v-467zM510 770h78q109 0 171 65.5t62 186.5q0 225 -229 225q-43 0 -82 -14v-463z" />
<glyph unicode="C" horiz-adv-x="1392" d="M82 612q0 332 207 542t553 210q111 0 187.5 -12.5t103 -16.5t98.5 -19.5t86 -17.5q-20 -229 -55 -360l-111 -20q-29 219 -70 278q-84 53 -276.5 53t-303 -155.5t-110.5 -406.5t126 -428t329 -177q147 0 226 74.5t124 244.5l111 -10q-2 -137 -43 -356q-203 -68 -439 -68 q-328 0 -535.5 175t-207.5 470z" />
<glyph unicode="D" horiz-adv-x="1572" d="M98 1264l17 75q35 -2 88 -2l491 15q365 0 576 -144q221 -150 221 -485.5t-196.5 -537t-542.5 -201.5q-94 0 -223.5 8t-180.5 8t-231 -18l-17 79q76 16 111 36t35 65v1003q0 25 -5 34t-24 22q-37 23 -98 36zM510 201q0 -107 226 -107h2q224 0 344 156t120 433.5 t-133 416.5t-414 139q-94 0 -145 -18v-1020z" />
<glyph unicode="E" horiz-adv-x="1216" d="M92 61q133 27 150 62q4 10 4 39v1012q0 47 -33 61q-39 18 -98 31l-23 6l19 80q197 -20 258 -21h503q99 0 189 12l4 -178q0 -72 -6 -143l-94 -16q-29 158 -66 200h-389v-450h235q51 0 68 30q12 23 31 95l4 20l88 -10q-16 -109 -16 -202t16 -195l-88 -9q-18 80 -33.5 112 t-69.5 32h-235v-502h410q27 23 62.5 105.5t49.5 134.5l94 -17q-2 -59 -16 -183t-27 -167h-714q-84 0 -260 -18z" />
<glyph unicode="F" horiz-adv-x="1071" d="M98 61q78 16 113 36t35 65v1012q0 51 -41 67t-107 31l19 80q168 -20 252 -21h493q96 0 178 12q4 -47 4 -128.5t-4 -198.5l-94 -17q-39 172 -69 205h-367v-459h217q55 0 68 31l24 117l78 -10q-16 -109 -16 -204t16 -198l-78 -10q-12 86 -24.5 116.5t-67.5 30.5h-217v-440 q0 -31 8 -46t37 -26l164 -38l-14 -86q-156 18 -300.5 18t-291.5 -18z" />
<glyph unicode="G" horiz-adv-x="1447" d="M82 612q0 332 201.5 542t537.5 210q178 0 473 -66q-16 -188 -53 -340l-111 -16q-23 188 -67 254q-84 53 -277.5 53t-304 -155.5t-110.5 -406.5t126 -428t328 -177q117 0 193 53v258q0 55 -45 72l-150 39l19 86q193 -18 322 -18q4 -1 7 -1q125 0 215 19l15 -80 q-57 -18 -88 -37.5t-31 -62.5v-371q-201 -72 -477 -72q-319 0 -521 175t-202 470z" />
<glyph unicode="H" horiz-adv-x="1669" d="M98 61q78 16 113 36t35 63v1011q0 43 -25 58q-39 20 -102 37l-21 4l19 80q135 -18 263 -18q3 0 7 -1q125 0 270 19l19 -90q-96 -12 -131 -27.5t-35 -61.5v-407h649v403q0 29 -5 41.5t-24 20.5q-39 18 -110 28l-27 3l19 90q152 -18 278 -18q3 0 7 -1q124 0 257 19l17 -80 q-78 -16 -113 -36t-35 -63v-1011q0 -43 25 -58q39 -20 102 -36l21 -5l-17 -79q-137 18 -264 18t-280 -18l-17 90q147 18 162 51q4 12 4 41v461h-649v-461q0 -29 5 -41t26 -21q35 -18 110 -28l25 -2l-17 -90q-154 18 -279.5 18t-264.5 -18z" />
<glyph unicode="I" horiz-adv-x="755" d="M98 61q127 27 144 62q4 10 4 37v1011q0 27 -5 38.5t-24 21.5q-35 18 -98 35l-21 4l15 80q141 -18 267 -18q3 0 6 -1q123 0 261 19l15 -80q-131 -25 -146 -62q-6 -10 -6 -37v-1011q0 -27 5 -38t26 -22q33 -18 98 -34l23 -5l-15 -79q-141 18 -267 18t-267 -18z" />
<glyph unicode="J" horiz-adv-x="620" d="M-61 -471q229 248 229 471v1171q0 27 -5 38.5t-24 21.5q-35 18 -98 35l-21 4l15 80q141 -18 267 -18q3 -1 6 -1q124 0 261 19l15 -80q-131 -25 -146 -62q-6 -10 -6 -37v-1069q0 -88 -4 -134t-25.5 -112.5t-71.5 -123t-134 -119.5l-197 -145z" />
<glyph unicode="K" horiz-adv-x="1468" d="M98 61q127 27 144 62q4 10 4 37v1011q0 27 -5 38.5t-24 21.5q-35 18 -98 35l-21 4l15 80q141 -18 267 -18q3 0 6 -1q123 0 261 19l15 -80q-131 -25 -146 -62q-6 -10 -6 -37v-1011q0 -27 5 -38t26 -22q33 -18 114 -34l27 -5l-14 -79q-154 18 -284 18t-271 -18zM539 649v68 l442 463q31 33 31 53q0 29 -115 47l14 68q100 -16 207 -16q3 0 6 -1q104 0 205 17l14 -68q-70 -10 -110.5 -31.5t-83.5 -68.5l-397 -420l514 -563q70 -76 114.5 -101.5t118.5 -44.5l-14 -67q-137 16 -304 16t-280 -16l-18 67q8 2 24.5 5t24.5 5t21.5 5.5t20.5 6.5t13 7 q14 8 14 25.5t-36 58.5z" />
<glyph unicode="L" horiz-adv-x="1105" d="M98 59q78 16 113 36t35 67v1007q0 45 -25 60q-39 20 -102 37l-21 4l19 80q141 -18 289 -18q4 0 8 -1q145 0 288 19l17 -86q-127 -25 -168 -40.5t-41 -70.5v-1024h360q27 23 69 105.5t56 130.5l99 -19q-2 -51 -18.5 -177t-28.5 -169h-685q-45 0 -247 -18z" />
<glyph unicode="M" horiz-adv-x="1933" d="M55 61q76 16 112 35t38 66l76 1009q2 45 -33 64q-33 16 -101 31l-22 6l14 80q113 -20 237 -20q3 0 6 -1q121 0 232 21q25 -94 41 -142l295 -796l27 -97l14 -4q4 68 19 99l293 786l43 154q106 -20 216 -20q3 0 5 -1q107 0 223 21l14 -80q-76 -18 -112 -36q-33 -17 -33 -61 v-10l61 -997q2 -49 37 -70q33 -16 107 -37l-15 -79q-129 18 -256 18t-288 -18l-15 84q147 31 168 65q8 10 6 37l-49 879l-12 10q-23 -102 -43 -152l-244 -614q-35 -86 -76 -234l-12 -45l-194 -49q-57 195 -101 301l-246 631l-38 135l-15 -10l-59 -852q-2 -27 5 -38t26 -21 q35 -18 116 -37l27 -6l-17 -84q-133 18 -232 18t-228 -18z" />
<glyph unicode="N" horiz-adv-x="1574" d="M86 61q84 14 127 37q33 14 33 64v1012q0 45 -33 61l-121 37l14 80q112 -20 220 -20q2 0 6 -1q105 0 217 21q47 -82 127 -199l426 -614q31 -47 57 -121l8 -25l11 8v766q0 45 -35 62q-23 12 -111 33l-26 6l14 84q158 -20 245 -20q2 0 4 -1q86 0 222 21l14 -80 q-78 -16 -115.5 -35.5t-37.5 -62.5v-779q0 -160 12 -325l4 -56l-221 -43q-76 168 -234 394l-409 585q-35 49 -64 111l-10 22l-10 -8v-897q0 -31 8 -47t37 -25q27 -12 131 -32l33 -6l-17 -86q-141 18 -251.5 18t-258.5 -18z" />
<glyph unicode="O" horiz-adv-x="1579" d="M82 637q0 313 191.5 520t515 207t516 -178t192.5 -491.5t-191.5 -520.5t-515 -207t-516 178.5t-192.5 491.5zM371 693q0 -251 112.5 -429t319.5 -178t306 150.5t99 401.5t-112.5 429t-319.5 178t-306 -150.5t-99 -401.5z" />
<glyph unicode="P" horiz-adv-x="1142" d="M96 1264l17 75q6 -6 71 -6l404 15q530 0 530 -377q0 -168 -135 -290t-301 -122q-27 0 -71 18.5t-64 32.5l-8 43l67 -8q228 0 228 302q0 300 -248 300q-33 0 -76 -14v-1055q0 -31 8 -46t37 -26l166 -38l-16 -86q-193 18 -299.5 18t-290.5 -18l-17 79q78 16 113 36t35 65 v1003q0 43 -25 56q-37 20 -104 36z" />
<glyph unicode="Q" horiz-adv-x="1579" d="M82 641q0 309 191.5 516t515 207t516 -178t192.5 -488.5t-184.5 -515.5t-491.5 -213q47 -12 195.5 -108.5t226.5 -96.5t162 117l57 -74q-102 -141 -167.5 -192t-132 -51t-148.5 52t-152.5 104.5t-109.5 52.5t-87.5 -36t-76.5 -71l-72 55q37 51 120 136.5t124 109.5 q-314 10 -496 187.5t-182 486.5zM371 693q0 -251 112.5 -431t319.5 -180t306 150.5t99 403.5t-112.5 431t-319.5 178t-306 -150.5t-99 -401.5z" />
<glyph unicode="R" horiz-adv-x="1361" d="M98 61q127 27 144 62q4 10 4 39v1003q0 45 -25 60q-45 23 -102 35l-21 4l15 75q6 -6 67 -6l412 15q236 0 381 -81t145 -266q0 -135 -98 -235t-236 -111v-14q61 -14 125 -86t109 -154q125 -227 205 -282.5t163 -55.5l-12 -75h-362q-49 0 -123 114q-66 104 -121 210 t-85 160t-58.5 82t-77.5 28h-37v-404q0 -31 8 -46t37 -26l164 -38l-14 -86q-193 18 -300.5 18t-291.5 -18zM510 698h61q262 0 263 275q0 141 -57.5 207.5t-184.5 66.5q-47 0 -82 -14v-535z" />
<glyph unicode="S" horiz-adv-x="1073" d="M98 208q0 138 8 177l107 23q12 -143 84 -234.5t211 -91.5q92 0 152.5 57.5t60.5 157.5q0 94 -82 164q-68 57 -155 107t-109.5 63.5t-75.5 50.5t-76.5 63.5t-54.5 65.5q-55 74 -55 186q0 172 128 269.5t326 97.5q72 0 373 -53q-2 -49 -21.5 -164t-31.5 -160l-101 -14 q-14 166 -38 229q-70 51 -197 51q-80 0 -132 -50t-52 -138q0 -86 88 -152q66 -49 166 -105t147 -87t109 -82q114 -99 114 -253q0 -206 -144.5 -312.5t-355 -106.5t-389.5 76q-4 27 -4 165z" />
<glyph unicode="T" horiz-adv-x="1185" d="M12 1216v33q0 64 2 99q137 -16 217 -17h723q80 0 217 17q3 -31 3 -103q0 -75 -21 -264l-115 -18q-12 164 -43 241h-270v-1036q0 -41 25 -53q39 -23 139 -45l33 -7l-19 -81q-158 18 -310.5 18t-309.5 -18l-19 81q170 33 191 68q6 10 6 37v1036h-271q-20 -55 -43 -241 l-116 18q-19 145 -19 235z" />
<glyph unicode="U" horiz-adv-x="1544" d="M70 1270l14 80q141 -18 267 -18q3 0 6 -1q123 0 261 19l15 -80q-131 -25 -146 -62q-6 -10 -6 -37v-661q0 -199 82 -292t250 -93t254 92t86 252v702q0 27 -5 38.5t-24 21.5q-33 18 -96 35l-22 4l14 80q104 -18 212 -18q3 0 6 -1q106 0 226 19l15 -80q-131 -25 -148 -62 q-4 -10 -4 -37v-669q0 -260 -143.5 -395.5t-417.5 -135.5t-411.5 122t-137.5 384v694q0 27 -5 38.5t-24 21.5q-35 18 -98 35z" />
<glyph unicode="V" horiz-adv-x="1310" d="M-12 1270l18 80q134 -18 270 -18q3 0 7 -1q132 0 282 19l15 -80q-74 -20 -121 -40t-47 -56q0 -12 4 -25l272 -787l21 -83l14 -7l12 90l279 787q6 15 6 29q0 39 -53 55l-121 37l14 80q132 -18 228 -18q2 0 4 -1q95 0 215 19l16 -80q-80 -18 -102.5 -44t-53.5 -122 l-424 -1118h-192l-404 1118q-35 96 -58 121.5t-101 44.5z" />
<glyph unicode="W" horiz-adv-x="2088" d="M-12 1270l16 80q136 -18 270 -18q3 0 6 -1q132 0 281 19l14 -80q-74 -18 -116 -37q-51 -18 -51 -57q0 -16 4 -27l243 -782l13 -60l12 -2l8 68l311 956h209l312 -956l12 -54l10 -2l12 62l242 770q4 10 4 27q0 43 -51 57l-121 37l14 80q132 -18 226 -18q2 0 5 -1 q92 0 212 19l16 -80q-80 -20 -102.5 -45t-52.5 -121l-381 -1120h-191l-315 944l-12 55l-11 2l-16 -70l-307 -931h-193l-373 1120q-31 94 -55 119.5t-104 46.5z" />
<glyph unicode="X" horiz-adv-x="1425" d="M18 59q55 14 95.5 43t95.5 99l366 467l-309 440q-59 84 -100 115.5t-111 46.5l17 80q134 -18 290 -18q4 0 8 -1q151 0 287 19l15 -80q-66 -12 -101.5 -31.5t-35.5 -47.5t8 -42l239 -336l248 336q8 10 8 33q0 63 -141 88l14 80q131 -18 229 -18q3 0 6 -1q97 0 216 19 l18 -80q-84 -20 -113.5 -41t-86.5 -99l-324 -419l350 -488q61 -88 99 -117.5t102 -44.5l-16 -79q-135 18 -300 18t-307 -18l-14 79q160 41 160 86q0 23 -10 35l-269 379l-282 -379q-10 -16 -11 -32q0 -31 58 -56l102 -33l-14 -79q-133 18 -232.5 18t-236.5 -20z" />
<glyph unicode="Y" horiz-adv-x="1245" d="M-8 1352q143 -20 286 -20q3 -1 6 -1q140 0 308 21l-6 -78q-59 -12 -94 -31.5t-35 -51.5t16 -58l227 -396l218 398q20 35 20 58.5t-21.5 38.5t-132.5 42l-6 78q168 -20 252 -20q2 -1 4 -1q83 0 219 21l-8 -78q-63 -6 -102 -35t-76 -109l-322 -565v-405q0 -29 5.5 -40 t23.5 -22q41 -20 119 -37l29 -4l-19 -73q-154 16 -284 16t-271 -16l-16 75q150 25 164 60q6 12 6 41v401l-338 584q-35 72 -70 97.5t-94 31.5z" />
<glyph unicode="Z" horiz-adv-x="1218" d="M66 106l725 1086h-467q-59 -80 -105 -270l-102 18q0 303 12 381l70 37q61 -27 145 -27h741l19 -112l-719 -1080h492q31 29 90 135.5t80 163.5l104 -24q-2 -57 -28.5 -208t-43.5 -206h-985z" />
<glyph unicode="[" horiz-adv-x="669" d="M197 -319v1650h428v-131h-244v-1388h244v-131h-428z" />
<glyph unicode="\" horiz-adv-x="903" d="M55 1286l152 80l641 -1634l-152 -80z" />
<glyph unicode="]" horiz-adv-x="669" d="M45 -188h244v1388h-244v131h428v-1650h-428v131z" />
<glyph unicode="^" horiz-adv-x="974" d="M66 637l352 737h139l352 -737l-151 -64l-271 605l-270 -605z" />
<glyph unicode="_" horiz-adv-x="1024" d="M0 -178h1024v-141h-1024v141z" />
<glyph unicode="`" horiz-adv-x="659" d="M135 1348l27 55q127 0 215 -19q18 -18 83.5 -145t84.5 -172l-96 -55z" />
<glyph unicode="a" d="M61 213q0 115 86 169t248 73l137 16v96q0 109 -23.5 162t-91 53t-120.5 -26q-12 -43 -12 -187l-127 -34q-59 184 -62 249q242 111 361 111q166 0 243.5 -72.5t77.5 -226.5v-408q0 -43 17.5 -57t56.5 -20l51 -5l19 -69q-111 -18 -277 -70q-86 51 -106 131 q-131 -131 -215 -131q-119 0 -191 65.5t-72 180.5zM307 229q0 -45 24.5 -76.5t78 -31.5t122.5 59v209l-106 -22q-119 -27 -119 -138z" />
<glyph unicode="b" horiz-adv-x="1054" d="M-12 1389q70 27 185.5 52t184.5 29l41 -47q-26 -49 -26 -180v-10v-449q133 111 245 111q184 0 278.5 -114.5t94.5 -321.5t-132 -349.5t-324.5 -142.5t-407.5 84v1202q0 37 -10.5 52.5t-40.5 15.5l-76 -10zM373 219q0 -61 44 -99t120.5 -38t133 86t56.5 257 q0 318 -192 318q-80 0 -142 -38l-20 -15v-471z" />
<glyph unicode="c" horiz-adv-x="894" d="M63 416.5q0 201.5 120 340t323 138.5q66 0 173 -27.5t165 -50.5q-4 -45 -30 -150.5t-44 -146.5l-111 21q2 18 3 45q0 127 -23 168q-52 34 -145 34h-5q-161 0 -161 -317q0 -172 65.5 -258t179 -86t242.5 74l41 -60q-193 -174 -352 -174q-197 0 -319 124t-122 325.5z" />
<glyph unicode="d" horiz-adv-x="1110" d="M84 412q0 209 128 346t345 137q82 0 141 -37v385q0 76 -35.5 76t-115.5 -19l-15 82q68 29 194 56.5t202 31.5l41 -47q-25 -51 -25 -190v-1038q0 -53 33 -68q27 -18 108 -18l15 -72q-168 -25 -291 -70q-82 53 -104 133q-119 -133 -230 -133q-188 0 -289.5 118t-101.5 327z M348 449.5q0 -164.5 54.5 -247.5t138.5 -83t157 59v504q-29 41 -73.5 69.5t-85.5 28.5q-84 0 -137.5 -83t-53.5 -247.5z" />
<glyph unicode="e" horiz-adv-x="921" d="M55 413.5q0 200.5 121 341t314.5 140.5t290 -118t96.5 -316l-558 -37q17 -297 244 -297q129 0 256 88l43 -65q-197 -182 -366 -183q-201 0 -321 123t-120 323.5zM319 522l291 41q0 227 -135 228q-76 0 -116 -79t-40 -190z" />
<glyph unicode="f" horiz-adv-x="667" d="M55 55q74 16 107 37t33 64v596h-115l-10 82l125 30v117q0 203 113.5 346t314.5 143q94 0 235 -47q-14 -84 -86 -266l-84 17q0 84 -30.5 136t-94 52t-93.5 -80t-30 -184v-246l230 20l-19 -133l-211 9v-590q0 -27 6.5 -37t24.5 -23q35 -23 115 -37l26 -6l-16 -73 q-225 18 -273.5 18t-250.5 -18z" />
<glyph unicode="g" horiz-adv-x="964" d="M12 -287q0 63 19 94l172 123q-115 43 -115 162q0 35 14 55l183 134q-23 6 -68 33.5t-72.5 58t-51 85t-23.5 117.5q0 152 112.5 236t290.5 84q84 0 172 -33h47q137 12 254 66l37 -39l-33 -117q-31 -6 -77 -6t-85 2q78 -82 78 -193q0 -156 -113.5 -242.5t-289.5 -86.5 q-45 0 -70 6q-76 -63 -76 -98q0 -47 136 -56l202 -14q141 -10 218 -74.5t77 -163.5q0 -158 -176 -268t-364.5 -110t-293 62t-104.5 183zM258 -259q0 -63 61.5 -108t166 -45t175 52.5t70.5 133.5t-131 91l-266 29q-76 -90 -76 -153zM324 588q0 -104 37.5 -173t111.5 -69 q137 0 137 215q0 100 -37.5 168t-109.5 68q-139 0 -139 -209z" />
<glyph unicode="h" horiz-adv-x="1167" d="M49 1382q66 29 184.5 56.5t190.5 31.5l39 -47q-25 -51 -25 -190v-483l66 55q106 90 198 90q150 0 227 -72.5t77 -236.5v-430q0 -27 5 -37t25 -23q29 -18 109 -41l-17 -73q-203 18 -229.5 18t-236.5 -18l-17 71q51 14 84 37q31 23 31 62v393q0 102 -32 148t-104.5 46 t-185.5 -80v-507q0 -61 117 -99l-16 -71q-211 18 -238 18t-229 -18l-19 73q74 14 109 39q31 18 31 62v1087q0 72 -52 72l-78 -15z" />
<glyph unicode="i" horiz-adv-x="610" d="M55 807q74 31 195 59.5t186 28.5l41 -47q-33 -87 -33 -191v-501q0 -27 5.5 -37t25.5 -21q37 -23 109 -43l-15 -73q-176 18 -247.5 18t-245.5 -18l-17 73q74 16 109 41q31 18 31 60v512q0 71 -54 71h-2l-71 -14zM127 1210.5q0 63.5 44 102.5t115.5 39t117 -39t45.5 -102.5 t-45.5 -102.5t-117 -39t-115.5 39t-44 102.5z" />
<glyph unicode="j" horiz-adv-x="557" d="M2 -479q123 133 162 268q14 48 14 154v725q0 71 -54 71h-1l-72 -14l-16 82q74 31 194.5 59.5t186.5 28.5l41 -47q-33 -86 -33 -191v-653q0 -145 -27 -201q-66 -104 -168 -192q-45 -39 -61 -53q-104 -90 -113 -90zM106 1210.5q0 63.5 44.5 102.5t116 39t116.5 -39 t45 -102.5t-45 -102.5t-116.5 -39t-116 39t-44.5 102.5z" />
<glyph unicode="k" horiz-adv-x="1157" d="M55 1382q74 31 195 59.5t186 28.5l41 -47q-33 -86 -33 -190v-713l248 211q39 35 39 47q0 18 -61 27l-6 69q63 -12 191 -12t214 12l-6 -71q-43 -10 -74 -17.5t-82 -52.5l-241 -209l340 -368q45 -49 84 -70l86 -31l-17 -73q-133 18 -230.5 18t-215.5 -18l-17 73 q18 2 41 14.5t23 29t-39 57.5l-277 303v-303q0 -27 6.5 -37t24.5 -23q25 -18 98 -41l-14 -73q-170 18 -239.5 18t-243.5 -18l-17 73q74 16 109 41q31 18 31 60v1087q0 72 -56 72l-71 -15z" />
<glyph unicode="l" horiz-adv-x="610" d="M55 1382q74 31 195 59.5t186 28.5l41 -47q-33 -86 -33 -190v-1077q0 -27 5.5 -37t25.5 -21q37 -23 109 -43l-15 -73q-176 18 -247.5 18t-245.5 -18l-17 73q74 16 109 41q31 18 31 60v1087q0 72 -56 72l-71 -15z" />
<glyph unicode="m" horiz-adv-x="1716" d="M41 803q68 31 170 58.5t168 33.5l43 -47q0 -41 20 -98l68 55q109 90 192 90q217 0 275 -162l88 72q109 90 192 90q145 0 221 -72.5t76 -236.5v-430q0 -27 6.5 -37t24.5 -23q29 -18 109 -41l-17 -73q-203 18 -231.5 18t-231.5 -18l-14 71q49 16 79 39t30 60v393 q0 102 -31 148t-103.5 46t-179.5 -86q4 -41 4 -67v-430q0 -39 23 -56q33 -25 88 -45l-16 -73q-180 18 -206 18t-229 -18l-14 71q49 16 79 39t30 60v393q0 102 -31 148t-102.5 46t-176.5 -80v-507q0 -63 97 -95l14 -4l-14 -71q-203 18 -230.5 18t-230.5 -18l-21 73 q74 16 107 37t33 64v512q0 69 -52 69h-2l-94 -12z" />
<glyph unicode="n" horiz-adv-x="1173" d="M41 803q68 31 170 58.5t168 33.5l43 -47q0 -41 20 -98l68 55q109 90 199 90q150 0 226.5 -72.5t76.5 -236.5v-430q0 -27 5 -37t23 -21q39 -23 111 -43l-16 -73q-203 18 -230.5 18t-238.5 -18l-15 71q51 16 84 39q31 23 31 60v393q0 102 -32 148t-104.5 46t-185.5 -80 v-507q0 -61 117 -99l-14 -71q-211 18 -237.5 18t-229.5 -18l-21 73q74 16 107 37t33 64v512q0 69 -52 69h-2l-94 -12z" />
<glyph unicode="o" horiz-adv-x="1044" d="M63 410.5q0 205.5 126 340t338 134.5t333 -120t121 -323.5t-128 -339t-339 -135.5t-331 119t-120 324.5zM328 449q0 -182 58 -279.5t163 -97.5q168 0 168 331q0 182 -59.5 279.5t-165.5 97.5h-1q-163 0 -163 -331z" />
<glyph unicode="p" horiz-adv-x="1089" d="M14 813q176 78 334 92l43 -47q0 -45 21 -102l90 67q94 72 170 72q186 0 274 -112.5t88 -322.5t-133 -351.5t-342 -141.5q-68 0 -141 45v-360q0 -39 33 -62q47 -20 122 -32l23 -4l-14 -72q-190 18 -258 18t-271 -18l-20 74q74 16 106.5 36.5t32.5 63.5v1022q0 70 -53 70 l-94 -13zM418 186q23 -49 68 -81.5t92 -32.5q80 0 136 89t56 261q0 319 -186 319q-76 0 -166 -84v-471z" />
<glyph unicode="q" horiz-adv-x="1034" d="M55 408.5q0 207.5 128 347t343 139.5q55 0 128 -16.5t111 -16.5t136 33l41 -27q-24 -51 -24 -215v-999q0 -27 5 -37t25 -23l99 -40l-15 -74q-137 20 -221 20t-309 -20l-17 80q113 23 152 39t39 57v430q-125 -119 -219 -119q-193 0 -297.5 117t-104.5 324.5zM319 444 q0 -170 54.5 -252.5t136.5 -82.5t162 61v475q0 61 -47 98t-124 37t-129.5 -83t-52.5 -253z" />
<glyph unicode="r" horiz-adv-x="835" d="M41 803q70 31 173 59.5t169 32.5l43 -47q0 -76 18 -141l58 79q75 109 184 109q61 0 160 -49q-10 -55 -38 -157.5t-46 -147.5l-86 -11q0 195 -55 195q-74 0 -177 -141v-426q0 -27 8.5 -38t30.5 -22q39 -18 119 -30l29 -5l-15 -81q-244 18 -309 18t-231 -18l-19 73 q76 16 109 37t33 64v512q0 69 -52 69h-2l-94 -12z" />
<glyph unicode="s" horiz-adv-x="796" d="M62 144q0 8 -1 16q0 74 5 106l100 23q16 -100 71.5 -161.5t137.5 -61.5q49 0 81.5 30.5t32.5 76.5t-12 69.5t-41 44.5q-41 33 -115.5 69.5t-116.5 63t-82 87t-40 140.5q0 115 91 181.5t226.5 66.5t307.5 -47q-6 -133 -35 -225l-82 -19q-49 197 -187 197q-92 0 -92 -109 q0 -43 36 -73.5t105.5 -64.5t100.5 -51.5t82 -56.5q94 -74 94 -207t-102.5 -202.5t-269.5 -69.5t-291 56q-4 35 -4 121z" />
<glyph unicode="t" horiz-adv-x="700" d="M31 836l119 36v101l245 112v-225l242 19l-23 -134l-219 9v-500q0 -78 22.5 -104.5t83 -26.5t156.5 61l41 -67q-180 -150 -296.5 -150t-184 56.5t-67.5 199.5v537h-103z" />
<glyph unicode="u" horiz-adv-x="1126" d="M16 807q74 31 195 59.5t186 28.5l41 -47q-32 -83 -32 -185v-6v-340q0 -102 31.5 -148t104 -46t169.5 74v471q0 71 -54 71h-2l-71 -14l-17 82q74 31 195 59.5t186 28.5l41 -47q-33 -87 -33 -191v-462q0 -53 33 -68q27 -18 109 -18l16 -70q-182 -33 -291 -72 q-106 66 -106 144q-152 -143 -254 -144q-147 0 -225 72t-78 237v392q0 71 -54 71h-2l-71 -14z" />
<glyph unicode="v" horiz-adv-x="950" d="M-39 879q137 -17 221 -17h5q84 0 266 17l-9 -72q-63 -16 -84.5 -25.5t-21.5 -28t10 -40.5l160 -406l12 -53l12 -2l15 59l153 400q10 23 10.5 40t-12.5 25q-23 20 -96 29l-4 72q114 -15 192 -15h6q76 0 193 15l-14 -76q-53 -6 -72.5 -23.5t-44.5 -72.5l-309 -723h-150 l-311 731q-20 51 -39.5 67.5t-73.5 22.5z" />
<glyph unicode="w" horiz-adv-x="1495" d="M-35 879q137 -17 221 -17h5q84 0 266 17l-8 -72q-63 -16 -89 -27q-16 -8 -16 -26.5t8 -40.5l146 -406l12 -53l12 -2l15 59l194 551h152l180 -555l12 -53l12 -2l15 59l139 400q10 23 10 40t-12 25q-23 20 -96 29l-4 72q115 -15 193 -15h5q76 0 193 15l-14 -76 q-53 -6 -73 -23.5t-44 -72.5l-293 -723h-152l-186 512l-14 59l-13 2l-12 -61l-192 -512h-148l-297 731q-20 51 -39.5 67.5t-72.5 22.5z" />
<glyph unicode="x" horiz-adv-x="1064" d="M4 55q100 10 174 97l236 266l-256 305q-66 80 -142 82l-10 74q122 -17 262 -17h8q135 0 242 17l-6 -74q-90 -23 -90 -49q0 -14 22 -41l131 -158l119 156q16 23 16.5 39t-6 24t-19.5 12.5t-23.5 6.5t-25.5 4t-22 4l-4 74q61 -15 178 -15h8q112 0 201 15l-8 -74 q-43 -2 -72.5 -21.5t-72.5 -70.5l-197 -240l277 -328q72 -82 151 -88l-16 -73q-143 18 -260 18t-246 -18l-16 73q118 20 118 59q0 17 -24 46l-148 174l-145 -174q-27 -31 -27 -47.5t9.5 -24.5t25.5 -13t29 -9q45 -10 53 -11l-18 -73q-125 18 -198 18t-192 -18z" />
<glyph unicode="y" horiz-adv-x="952" d="M-39 879q164 -16 235 -17h5q72 0 252 17l-9 -72q-4 -2 -21 -6t-28.5 -7t-25.5 -8q-29 -12 -29 -30q0 -14 8 -43l180 -461l177 469q6 18 6 35q0 37 -109 49l-4 72q100 -14 168 -15h4q69 0 219 15l-14 -76q-49 -2 -68.5 -17.5t-40.5 -62.5l-430 -1006q-92 -215 -293 -215 h-34q-49 84 -76 240l47 29q59 -37 104 -37q96 0 148 88l69 162l-313 731q-25 55 -43 69.5t-70 20.5z" />
<glyph unicode="z" horiz-adv-x="858" d="M49 57l453 697h-269q-16 -18 -41.5 -79t-35.5 -102l-90 15q0 225 12 270l51 33q97 -29 199 -29h446l23 -57l-451 -692h275q18 18 55 85.5t49 102.5l94 -16q-4 -86 -55 -285h-703z" />
<glyph unicode="{" horiz-adv-x="688" d="M82 481v88q84 0 129 82t45 191l-18 313q0 72 57 123q47 43 215 74q55 10 65 12l31 -59q-14 -6 -44 -17.5t-50 -23t-31 -21.5q-27 -27 -26.5 -67.5t14.5 -153.5t14 -160q0 -117 -76.5 -210t-166.5 -117v-19q90 -25 166.5 -121t76.5 -217q0 -53 -14 -173t-14 -155.5t8 -51 t18.5 -26t30.5 -21.5t33 -15q47 -18 61 -25l-31 -59q-10 2 -65 12t-77.5 15.5t-69 21.5t-68.5 37q-57 51 -57 123l18 338q0 113 -45 197.5t-129 84.5z" />
<glyph unicode="|" horiz-adv-x="632" d="M229 -348v1712h174v-1712h-174z" />
<glyph unicode="}" horiz-adv-x="688" d="M82 -289q14 6 44 17.5t50.5 22.5t30.5 22q27 27 26.5 69.5t-14.5 162.5t-14 173q0 121 76.5 217.5t167.5 120.5v19q-90 25 -167 117.5t-77 209.5q0 47 14 160t14 146.5t-8 49t-18 25.5t-30.5 21.5t-33.5 15.5q-47 18 -61 25l31 59q10 -2 65 -12.5t78 -15.5t69 -21.5 t68 -36.5q57 -51 58 -123l-19 -313q0 -109 45 -191t129 -82v-88q-84 0 -129 -84.5t-45 -197.5l19 -338q0 -72 -58 -123q-47 -43 -215 -74q-55 -10 -65 -12z" />
<glyph unicode="~" horiz-adv-x="1030" d="M61 406q31 55 105 148t115 128l71 12q35 -8 167 -81.5t190 -73.5q78 0 180 133l80 -43q-33 -61 -107 -160.5t-112 -130.5l-72 -12q-35 10 -167 84.5t-189 74.5q-76 0 -181 -133z" />
<glyph unicode="&#xa1;" horiz-adv-x="555" d="M106 743.5q0 67.5 48.5 109.5t124 42t123 -42t47.5 -109.5t-47.5 -109.5t-123 -42t-124 42t-48.5 109.5zM127 -496q39 463 63 725l21 211l111 27l34 -25l15 -313l51 -629l-27 -32q-47 0 -144 12t-124 24z" />
<glyph unicode="&#xa2;" horiz-adv-x="946" d="M82 596q0 182 107.5 314t291.5 149l6 178l99 12l-8 -192q145 -18 284 -74q-4 -43 -29.5 -140.5t-44.5 -135.5l-110 20q2 16 2 43q0 113 -23 150q-33 20 -84 28l-20 -633q12 -2 37 -2q115 0 244 74l40 -59q-178 -160 -327 -174l-6 -177l-99 -10l7 191 q-166 23 -266.5 139.5t-100.5 298.5zM336 643q0 -215 119 -295l22 602q-141 -28 -141 -307z" />
<glyph unicode="&#xa3;" horiz-adv-x="1075" d="M61 59q20 2 60.5 21.5t58.5 40.5q63 72 64 155v304h-142l21 106h121v64q0 207 118.5 353t329.5 146q94 0 246 -37q-16 -129 -72 -299l-100 -6q0 72 -21 195q-41 35 -111.5 35t-102 -82t-31.5 -189v-180h278l-20 -106h-258v-197q0 -72 -27 -128t-61 -83l-43 -14l6 -13h424 q20 20 55 100.5t43 119.5l96 -19q-4 -147 -39 -346h-632q-41 0 -244 -18z" />
<glyph unicode="&#xa4;" horiz-adv-x="1200" d="M123 256q63 56 145 113q-78 111 -78 253t80 250q-92 63 -147 115l6 45q33 45 61 60l46 8q57 -68 110 -146q111 88 253 88t253 -88q57 82 113 146l45 -8q29 -14 61 -60l6 -45q-55 -51 -147 -115q82 -111 82 -251t-80 -252q82 -57 145 -113l-6 -45q-33 -45 -61 -59l-45 -9 q-53 59 -113 144q-113 -86 -253 -86t-253 86q-55 -80 -110 -144l-46 9q-29 14 -61 59zM362 620.5q0 -112.5 69 -187.5t170 -75t170 75t69 187.5t-69 188.5t-170 76t-170 -76t-69 -188.5z" />
<glyph unicode="&#xa5;" horiz-adv-x="1212" d="M-4 1241q123 -20 267.5 -20t307.5 20l-6 -78q-117 -25 -116 -84q0 -23 16 -47l203 -284l196 284q23 31 23 52.5t-15.5 33.5t-35 20.5t-43 15.5t-27.5 9l-6 78q152 -20 229.5 -20t224.5 20l-8 -78q-66 -6 -103.5 -33.5t-94.5 -109.5l-291 -424v-66h254l-21 -106h-233v-100 h217l-21 -107h-196v-57q0 -29 5 -40t23 -22q41 -23 111 -37l25 -4l-17 -75q-166 18 -271.5 18t-270.5 -18l-15 77q143 25 160 60q4 12 4 41v57h-254l21 107h233v100h-217l20 106h197v72l-295 432q-49 70 -83 96.5t-89 32.5z" />
<glyph unicode="&#xa6;" horiz-adv-x="632" d="M229 254h174v-602h-174v602zM229 776v588h174v-588h-174z" />
<glyph unicode="&#xa7;" horiz-adv-x="964" d="M92 546.5q0 65.5 45 131t113 104.5q-154 106 -154 260t111.5 238t300.5 84q92 0 291 -55q-2 -45 -15.5 -142.5t-23.5 -132.5l-86 -18q-31 162 -47 192q-49 47 -128 47t-114 -43t-35 -106.5t39 -104t100.5 -78.5t122 -74t83 -51.5t66.5 -52t62 -65.5q51 -84 51 -167 t-48 -150.5t-117 -108.5q150 -111 149.5 -271.5t-122.5 -246.5t-311 -86t-312 71v295l98 23q18 -123 78.5 -200t148.5 -77q156 0 156 164q0 70 -49 116t-146.5 105.5t-118 72.5t-69.5 53t-66.5 71t-35 84t-17.5 118.5zM321.5 597q0.5 -67 35 -103.5t92 -73.5t67.5 -43 q33 -24 84 -53q35 53 35 122.5t-49 116.5t-185 129l-43 25q-37 -53 -36.5 -120z" />
<glyph unicode="&#xa8;" horiz-adv-x="786" d="M10 1202.5q0 61.5 42 99t111.5 37.5t112.5 -37.5t43 -99t-43 -99.5t-111.5 -38t-111.5 38t-43 99.5zM467 1202.5q0 61.5 42 99t111.5 37.5t112.5 -37.5t43 -99t-43 -99.5t-111.5 -38t-111.5 38t-43 99.5z" />
<glyph unicode="&#xa9;" horiz-adv-x="1445" d="M72 608q0 266 190.5 453.5t460.5 187.5t460.5 -187.5t190.5 -453.5t-190.5 -453.5t-460.5 -187.5t-460.5 187.5t-190.5 453.5zM193 608q0 -223 155.5 -381.5t374.5 -158.5t374.5 158.5t155.5 381.5t-155.5 382t-374.5 159t-374.5 -159t-155.5 -382zM373 601 q0 157 100 263.5t266 106.5q80 0 236 -39q-8 -121 -27 -195l-78 -14q0 80 -18 143q-47 20 -127 20.5t-125 -72.5t-45 -186.5t51 -194.5t126 -81t112 34t61 114l66 -4q0 -76 -21 -191q-102 -37 -217 -37q-158 0 -259 88t-101 245z" />
<glyph unicode="&#xaa;" horiz-adv-x="780" d="M92 796q0 81 59.5 118.5t170.5 50.5l94 14v49q0 147 -78 148q-49 0 -86 -17q-10 -33 -10 -63.5t2 -46.5l-78 -17q-10 20 -23.5 76.5t-15.5 79.5q160 72 246 72q217 0 217 -213v-246q0 -31 14 -43q14 -6 33.5 -6t42.5 4l16 -74q-86 -14 -180 -55q-27 10 -54.5 40.5 t-35.5 61.5q-102 -102 -173 -102t-116 44t-45 125zM279 803q0 -59 51 -60q41 0 86 41v134l-64 -15q-73 -20 -73 -100z" />
<glyph unicode="&#xab;" horiz-adv-x="1048" d="M78 401v70l383 352l61 -59l-200 -328l200 -327l-61 -60zM506 401v70l383 352l61 -59l-200 -328l200 -327l-61 -60z" />
<glyph unicode="&#xac;" horiz-adv-x="1173" d="M106 469v174h961v-438h-147v264h-814z" />
<glyph unicode="&#xad;" horiz-adv-x="645" d="M68 379l30 182h480l-29 -182h-481z" />
<glyph unicode="&#xae;" horiz-adv-x="1017" d="M66 919.5q0 186.5 129 315.5t315 129t314 -129t128 -315.5t-128 -314.5t-314 -128t-315 128t-129 314.5zM170 919.5q0 -151.5 100.5 -258t239.5 -106.5t238.5 106.5t99.5 258t-99.5 258t-238.5 106.5t-239.5 -106.5t-100.5 -258zM324 772q45 0 45 25v290q0 14 -11 17 l-34 8l2 33h24l150 4q164 0 164 -102q0 -41 -29 -70t-72 -31v-6q27 -6 72 -72.5t65 -76.5q14 -12 41 -13l-10 -39h-102q-18 0 -34.5 26t-26 41t-24 38.5t-18.5 30t-9 15.5t-9 15q-12 18 -27 19h-14v-121q0 -18 14 -23l41 -8l-4 -35q-66 4 -92.5 4t-99.5 -4zM467 965h27 q68 0 67.5 71.5t-61.5 71.5q-20 0 -33 -6v-137z" />
<glyph unicode="&#xaf;" horiz-adv-x="677" d="M45 1122l29 156h559l-29 -156h-559z" />
<glyph unicode="&#xb0;" horiz-adv-x="677" d="M74 1107.5q0 106.5 76.5 181.5t186 75t188.5 -75t79 -181.5t-79 -181t-188.5 -74.5t-186 74.5t-76.5 181zM213 1108q0 -55 37 -95t88 -40t89 40t38 94t-38 95t-89 41t-88 -40t-37 -95z" />
<glyph unicode="&#xb1;" horiz-adv-x="966" d="M96 23v153h774v-153h-774zM111 567v156h290v305h164v-305h291v-156h-291v-309h-164v309h-290z" />
<glyph unicode="&#xb2;" horiz-adv-x="751" d="M82 727q319 276 319 426q0 115 -82 115q-57 0 -102 -25q-6 -33 -6 -68.5t4 -72.5l-76 -8q-39 78 -57 206q166 61 268.5 61.5t173 -48.5t70.5 -150q0 -57 -24.5 -108t-51 -81t-81 -80t-156.5 -130l6 -14h237q16 14 47 58t39 66l56 -10q0 -25 -16.5 -105.5t-26.5 -113.5 h-531z" />
<glyph unicode="&#xb3;" horiz-adv-x="710" d="M78 664q2 33 19.5 109.5t29.5 107.5l70 -9q-2 -31 -2 -72.5t8 -64.5q43 -14 98 -14t93 30.5t38 79.5q0 141 -143 142q-14 0 -31 -2l4 71q45 10 89 49.5t44 84.5q0 94 -82 94q-74 0 -104 -15q-6 -68 -6 -93v-34l-68 -10q-33 59 -47 195q190 51 272 51t151 -41t69 -109.5 t-53.5 -113.5t-120.5 -58v-14q88 0 153.5 -43t65.5 -136t-89.5 -157.5t-203 -64.5t-254.5 37z" />
<glyph unicode="&#xb4;" horiz-adv-x="659" d="M115 1067q18 45 83.5 172t84.5 145q88 19 215 19l26 -55l-313 -336z" />
<glyph unicode="&#xb5;" horiz-adv-x="1079" d="M115 -498q4 352 32 752v575l25 35q74 23 201 31l41 -47q-20 -51 -21 -191v-340q0 -184 82 -184q66 0 124 89t58 175v430l23 37q74 20 205 31l41 -47q-20 -51 -21 -191v-432q0 -88 49 -88q35 0 105 92l53 -45q-150 -217 -287 -217q-72 0 -116.5 47t-44.5 113v61 q-106 -221 -254 -221q-89 0 -146 33q4 -383 92 -500l-39 -32q-41 0 -108.5 11t-93.5 23z" />
<glyph unicode="&#xb6;" horiz-adv-x="1095" d="M53 851q0 171 109.5 284.5t292.5 113.5h82l47 -39v-684l-47 -39h-82q-187 0 -294.5 96.5t-107.5 267.5zM381 -98l51 20q63 -49 113.5 -49t89.5 36t51 91q14 45 14 158v911q0 178 -26 248l41 47q219 -18 381 -72l-19 -92q-80 12 -122 12t-51 -18t-9 -57v-1051 q0 -117 -33 -209q-45 -96 -137 -160.5t-209 -64.5h-35q-57 76 -100 250z" />
<glyph unicode="&#xb7;" horiz-adv-x="583" d="M117 567.5q0 65.5 47 107.5t122.5 42t124 -42t48.5 -107.5t-48.5 -107.5t-124 -42t-122.5 42t-47 107.5z" />
<glyph unicode="&#xb8;" horiz-adv-x="659" d="M88 -424l39 76q94 -47 160 -47q78 0 78 71q0 47 -35 67.5t-61.5 20.5t-49.5 -6l-37 54l107 188h123l-45 -145q65 0 111 -46.5t46 -126t-62.5 -132t-160.5 -52.5t-213 78z" />
<glyph unicode="&#xb9;" horiz-adv-x="600" d="M74 1276q141 61 286 88l35 -35v-543q0 -35 23 -47q39 -23 106 -30l-10 -74q-82 10 -209 10t-207 -10l-14 74q137 12 137 77v371q0 33 -12 46.5t-45 13.5h-82z" />
<glyph unicode="&#xba;" horiz-adv-x="782" d="M78 936q0 141 86 232.5t230.5 91.5t227.5 -81t83 -222.5t-87.5 -236.5t-231.5 -95t-226 85t-82 226zM270 965q0 -119 37 -182.5t103 -63.5q100 0 100 217q0 111 -37 170t-102 59q-101 1 -101 -200z" />
<glyph unicode="&#xbb;" horiz-adv-x="1048" d="M98 109l201 327l-201 328l62 59l383 -352v-70l-383 -352zM526 109l201 327l-201 328l62 59l383 -352v-70l-383 -352z" />
<glyph unicode="&#xbc;" horiz-adv-x="1497" d="M106 1276q141 61 287 88l35 -35v-543q0 -35 23 -47q39 -23 106 -30l-10 -74q-82 10 -209 10t-207 -10l-14 74q137 12 137 77v371q0 33 -12.5 46.5t-44.5 13.5h-82zM367 31l729 1376l108 -61l-731 -1379zM788 281l320 438h164v-416h100l-20 -102h-80v-82q0 -29 22 -39 l60 -21l-8 -69q-109 10 -167.5 10t-181.5 -10l-8 69q63 10 86 21.5t23 38.5v82h-260zM903 313l6 -10h189v283l-4 2l-13 -29z" />
<glyph unicode="&#xbd;" horiz-adv-x="1595" d="M106 1276q141 61 287 88l35 -35v-543q0 -35 23 -47q39 -23 106 -30l-10 -74q-82 10 -209 10t-207 -10l-14 74q137 12 137 77v371q0 33 -12.5 46.5t-44.5 13.5h-82zM322 31l729 1376l108 -61l-731 -1379zM883 82q319 276 319 426q0 115 -82 115q-57 0 -102 -25 q-6 -33 -6 -68.5t4 -72.5l-76 -8q-39 78 -57 206q166 61 268 61.5t173 -49t71 -149.5q0 -57 -24.5 -108.5t-51.5 -81t-81 -79.5t-157 -130l6 -15h238q16 14 47 58.5t39 66.5l55 -10q0 -25 -16 -105.5t-27 -113.5h-530z" />
<glyph unicode="&#xbe;" horiz-adv-x="1511" d="M104 664q2 33 19.5 109.5t30.5 107.5l69 -9q-2 -31 -2 -72.5t8 -64.5q43 -14 98.5 -14t93.5 30.5t38 79.5q0 141 -144 142q-14 0 -30 -2l4 71q45 10 89 49.5t44 84.5q0 94 -82 94q-74 0 -104 -15q-6 -68 -6.5 -93t-0.5 -34l-67 -10q-33 59 -47 195q190 51 272 51 t150.5 -41t68.5 -109.5t-53 -113.5t-121 -58v-14q88 0 153.5 -43t65.5 -136t-89 -157.5t-202.5 -64.5t-255.5 37zM379 31l729 1376l109 -61l-732 -1379zM803 281l319 438h164v-416h100l-20 -102h-80v-82q0 -29 23 -39l59 -21l-8 -69q-106 10 -165.5 10t-182.5 -10l-8 69 q63 10 85.5 21.5t22.5 38.5v82h-260zM918 313l6 -10h188v283l-4 2l-12 -29z" />
<glyph unicode="&#xbf;" horiz-adv-x="884" d="M39 -207q0 59 38 119.5t74.5 95.5t103.5 88.5t93 79.5q86 78 86 139l-10 97l80 67q90 -90 129 -198q-4 -63 -42 -110.5t-52.5 -64t-62.5 -62.5t-56 -54q-135 -135 -135 -219t42 -131.5t113.5 -47.5t109.5 55.5t42 190.5l110 23q53 -190 54 -277q-217 -96 -374 -96 t-250 77t-93 228zM301 733.5q0 67.5 48 109.5t124 42t123 -42t47 -109.5t-47 -109.5t-123 -42t-124 42t-48 109.5z" />
<glyph unicode="&#xc0;" horiz-adv-x="1331" d="M-20 61q92 18 116.5 43t59.5 123l401 1094q96 18 182 61l447 -1155q37 -96 61.5 -121.5t104.5 -44.5l-15 -79q-141 18 -275 18t-288 -18l-12 79q68 20 116 39t48 54q0 14 -6 28l-105 285h-414l-96 -285q-4 -10 -4 -28q0 -37 51 -56l115 -37l-12 -79q-131 18 -224.5 18 t-234.5 -18zM305 1636l10 60q115 33 213 39q23 -12 119 -120t125 -145l-78 -77zM446 598h322l-137 381l-23 86l-14 6l-10 -78z" />
<glyph unicode="&#xc1;" horiz-adv-x="1331" d="M-20 61q92 18 116.5 43t59.5 123l401 1094q96 18 182 61l447 -1155q37 -96 61.5 -121.5t104.5 -44.5l-15 -79q-141 18 -275 18t-288 -18l-12 79q68 20 116 39t48 54q0 14 -6 28l-105 285h-414l-96 -285q-4 -10 -4 -28q0 -37 51 -56l115 -37l-12 -79q-131 18 -224.5 18 t-234.5 -18zM440 1470q29 37 125.5 144.5t118.5 120.5q98 -6 213 -39l10 -60l-389 -243zM446 598h322l-137 381l-23 86l-14 6l-10 -78z" />
<glyph unicode="&#xc2;" horiz-adv-x="1331" d="M-20 61q92 18 116.5 43t59.5 123l401 1094q96 18 182 61l447 -1155q37 -96 61.5 -121.5t104.5 -44.5l-15 -79q-141 18 -275 18t-288 -18l-12 79q68 20 116 39t48 54q0 14 -6 28l-105 285h-414l-96 -285q-4 -10 -4 -28q0 -37 51 -56l115 -37l-12 -79q-131 18 -224.5 18 t-234.5 -18zM309 1473q14 27 96 135.5t107 126.5q41 10 109.5 10t107.5 -10q25 -16 103.5 -124t97.5 -138l-88 -64l-221 182l-222 -182zM446 598h322l-137 381l-23 86l-14 6l-10 -78z" />
<glyph unicode="&#xc3;" horiz-adv-x="1331" d="M-20 61q92 18 116.5 43t59.5 123l401 1094q96 18 182 61l447 -1155q37 -96 61.5 -121.5t104.5 -44.5l-15 -79q-141 18 -275 18t-288 -18l-12 79q68 20 116 39t48 54q0 14 -6 28l-105 285h-414l-96 -285q-4 -10 -4 -28q0 -37 51 -56l115 -37l-12 -79q-131 18 -224.5 18 t-234.5 -18zM285 1438q25 45 85 131t89 112l47 9q25 -4 117 -51.5t143 -47.5t123 82l65 -45q-25 -43 -84 -118.5t-86 -98.5l-47 -8q-24 4 -116.5 47t-144.5 43t-128 -94zM446 598h322l-137 381l-23 86l-14 6l-10 -78z" />
<glyph unicode="&#xc4;" horiz-adv-x="1331" d="M-20 61q92 18 116.5 43t59.5 123l401 1094q96 18 182 61l447 -1155q37 -96 61.5 -121.5t104.5 -44.5l-15 -79q-141 18 -275 18t-288 -18l-12 79q68 20 116 39t48 54q0 14 -6 28l-105 285h-414l-96 -285q-4 -10 -4 -28q0 -37 51 -56l115 -37l-12 -79q-131 18 -224.5 18 t-234.5 -18zM238 1546.5q0 61.5 42 99t111.5 37.5t112.5 -37.5t43 -99t-43 -99.5t-111.5 -38t-111.5 38t-43 99.5zM446 598h322l-137 381l-23 86l-14 6l-10 -78zM694 1546.5q0 61.5 42 99t112 37.5t113 -37.5t43 -99t-43 -99.5t-112 -38t-112 38t-43 99.5z" />
<glyph unicode="&#xc5;" horiz-adv-x="1331" d="M-20 61q92 18 116.5 43t59.5 123l401 1094q96 18 182 61l447 -1155q37 -96 61.5 -121.5t104.5 -44.5l-15 -79q-141 18 -275 18t-288 -18l-12 79q68 20 116 39t48 54q0 14 -6 28l-105 285h-414l-96 -285q-4 -10 -4 -28q0 -37 51 -56l115 -37l-12 -79q-131 18 -224.5 18 t-234.5 -18zM428 1569q0 76 61.5 130t145.5 54t146.5 -54t62.5 -130t-62.5 -130.5t-146.5 -54.5t-145.5 54.5t-61.5 130.5zM446 598h322l-137 381l-23 86l-14 6l-10 -78zM551 1569q0 -39 24.5 -65.5t59.5 -26.5t60.5 26.5t25.5 65.5t-25.5 65.5t-60.5 26.5t-59.5 -26.5 t-24.5 -65.5z" />
<glyph unicode="&#xc6;" horiz-adv-x="1748" d="M-45 61q74 16 110.5 44t81.5 122l525 1119q112 -15 231 -15h514q102 0 178 12v-321l-106 -18q-29 158 -66 200h-348v-450h205q51 0 68 30q12 23 28 93l6 22l88 -12q-16 -109 -16 -201t16 -207l-88 -12q-16 90 -32.5 124t-69.5 34h-205v-496h369q27 23 62.5 103.5 t49.5 132.5l103 -17q-2 -61 -15.5 -184t-25.5 -164h-715q-78 0 -225 -18l-14 79q78 16 112.5 36t34.5 65v463h-303l-203 -443q-16 -35 -16 -55.5t16 -28.5q29 -16 92 -32l21 -5l-12 -77q-129 16 -233.5 16t-203.5 -16zM567 754h244v450h-39z" />
<glyph unicode="&#xc7;" horiz-adv-x="1392" d="M82 612q0 332 207 542t553 210q111 0 187.5 -12.5t103 -16.5t98.5 -19.5t86 -17.5q-20 -229 -55 -360l-111 -20q-29 219 -70 278q-84 53 -276.5 53t-303 -155.5t-110.5 -406.5t126 -428t329 -177q147 0 226 74.5t124 244.5l111 -10q-2 -137 -43 -356q-174 -59 -394 -66 l-34 -114q66 0 111.5 -46.5t45.5 -126t-62.5 -132t-160.5 -52.5t-213 78l39 76q94 -47 160 -47q78 0 78 71q0 47 -35 67.5t-61.5 20.5t-49.5 -6l-37 54l90 159q-295 23 -477 195t-182 446z" />
<glyph unicode="&#xc8;" horiz-adv-x="1193" d="M72 61q133 27 149 62q4 10 4 39v1012q0 47 -32 61q-39 18 -99 31l-22 6l18 80q197 -20 258 -21h504q98 0 188 12l4 -178q0 -72 -6 -143l-94 -16q-29 158 -65 200h-390v-450h236q51 0 68 30q12 23 30 95l4 20l88 -10q-16 -109 -16 -202t16 -195l-88 -9q-18 80 -33.5 112 t-68.5 32h-236v-502h410q27 23 62.5 105.5t50.5 134.5l94 -17q-2 -59 -16.5 -183t-26.5 -167h-715q-84 0 -260 -18zM287 1636l10 60q115 33 213 39q23 -12 119 -120t125 -145l-78 -77z" />
<glyph unicode="&#xc9;" horiz-adv-x="1193" d="M72 61q133 27 149 62q4 10 4 39v1012q0 47 -32 61q-39 18 -99 31l-22 6l18 80q197 -20 258 -21h504q98 0 188 12l4 -178q0 -72 -6 -143l-94 -16q-29 158 -65 200h-390v-450h236q51 0 68 30q12 23 30 95l4 20l88 -10q-16 -109 -16 -202t16 -195l-88 -9q-18 80 -33.5 112 t-68.5 32h-236v-502h410q27 23 62.5 105.5t50.5 134.5l94 -17q-2 -59 -16.5 -183t-26.5 -167h-715q-84 0 -260 -18zM422 1470q29 37 125 144.5t119 120.5q98 -6 213 -39l10 -60l-389 -243z" />
<glyph unicode="&#xca;" horiz-adv-x="1193" d="M72 61q133 27 149 62q4 10 4 39v1012q0 47 -32 61q-39 18 -99 31l-22 6l18 80q197 -20 258 -21h504q98 0 188 12l4 -178q0 -72 -6 -143l-94 -16q-29 158 -65 200h-390v-450h236q51 0 68 30q12 23 30 95l4 20l88 -10q-16 -109 -16 -202t16 -195l-88 -9q-18 80 -33.5 112 t-68.5 32h-236v-502h410q27 23 62.5 105.5t50.5 134.5l94 -17q-2 -59 -16.5 -183t-26.5 -167h-715q-84 0 -260 -18zM291 1473q14 27 96 135.5t107 126.5q41 10 109.5 10t107.5 -10q25 -16 103.5 -124t96.5 -138l-88 -64l-221 182l-221 -182z" />
<glyph unicode="&#xcb;" horiz-adv-x="1193" d="M72 61q133 27 149 62q4 10 4 39v1012q0 47 -32 61q-39 18 -99 31l-22 6l18 80q197 -20 258 -21h504q98 0 188 12l4 -178q0 -72 -6 -143l-94 -16q-29 158 -65 200h-390v-450h236q51 0 68 30q12 23 30 95l4 20l88 -10q-16 -109 -16 -202t16 -195l-88 -9q-18 80 -33.5 112 t-68.5 32h-236v-502h410q27 23 62.5 105.5t50.5 134.5l94 -17q-2 -59 -16.5 -183t-26.5 -167h-715q-84 0 -260 -18zM219 1544.5q0 61.5 42 99t111.5 37.5t112.5 -37.5t43 -99t-43 -99.5t-111.5 -38t-111.5 38t-43 99.5zM676 1544.5q0 61.5 42 99t111.5 37.5t112.5 -37.5 t43 -99t-43 -99.5t-111.5 -38t-111.5 38t-43 99.5z" />
<glyph unicode="&#xcc;" horiz-adv-x="694" d="M35 1636l10 60q115 33 213 39q23 -12 119 -120t125 -145l-78 -77zM68 61q127 27 141 62q6 10 6 37v1011q0 27 -5 38.5t-26 21.5q-33 18 -96 35l-20 4l14 80q141 -18 267 -18.5t267 18.5l15 -80q-131 -25 -148 -62q-4 -10 -4 -37v-1011q0 -27 5 -38t24 -22q35 -18 102 -34 l21 -5l-15 -79q-141 18 -267 18t-267 -18z" />
<glyph unicode="&#xcd;" horiz-adv-x="694" d="M68 61q127 27 141 62q6 10 6 37v1011q0 27 -5 38.5t-26 21.5q-33 18 -96 35l-20 4l14 80q141 -18 267 -18.5t267 18.5l15 -80q-131 -25 -148 -62q-4 -10 -4 -37v-1011q0 -27 5 -38t24 -22q35 -18 102 -34l21 -5l-15 -79q-141 18 -267 18t-267 -18zM170 1470 q29 37 125 144.5t119 120.5q98 -6 213 -39l10 -60l-389 -243z" />
<glyph unicode="&#xce;" horiz-adv-x="694" d="M39 1473q14 27 96 135.5t107 126.5q41 10 109.5 10t107.5 -10q25 -16 103.5 -124t96.5 -138l-88 -64l-221 182l-221 -182zM68 61q127 27 141 62q6 10 6 37v1011q0 27 -5 38.5t-26 21.5q-33 18 -96 35l-20 4l14 80q141 -18 267 -18.5t267 18.5l15 -80q-131 -25 -148 -62 q-4 -10 -4 -37v-1011q0 -27 5 -38t24 -22q35 -18 102 -34l21 -5l-15 -79q-141 18 -267 18t-267 -18z" />
<glyph unicode="&#xcf;" horiz-adv-x="694" d="M-33 1544.5q0 61.5 42 99t111.5 37.5t112.5 -37.5t43 -99t-43 -99.5t-111.5 -38t-111.5 38t-43 99.5zM68 61q127 27 141 62q6 10 6 37v1011q0 27 -5 38.5t-26 21.5q-33 18 -96 35l-20 4l14 80q141 -18 267 -18.5t267 18.5l15 -80q-131 -25 -148 -62q-4 -10 -4 -37v-1011 q0 -27 5 -38t24 -22q35 -18 102 -34l21 -5l-15 -79q-141 18 -267 18t-267 -18zM424 1544.5q0 61.5 42 99t111.5 37.5t112.5 -37.5t43 -99t-43 -99.5t-111.5 -38t-111.5 38t-43 99.5z" />
<glyph unicode="&#xd0;" horiz-adv-x="1583" d="M94 641l21 107h141v417q0 25 -5 34t-26 22q-35 23 -96 36l-20 7l16 75q35 -2 88 -2l492 15q365 0 573 -144q223 -150 223 -485.5t-196.5 -537t-542.5 -201.5q-94 0 -223 8t-180.5 8t-231.5 -18l-16 79q76 16 110.5 36t34.5 65v479h-162zM520 201q0 -106 226.5 -106.5 t346 155.5t119.5 433.5t-133 416.5t-413 139q-94 0 -146 -18v-473h314l-21 -107h-293v-440z" />
<glyph unicode="&#xd1;" horiz-adv-x="1564" d="M88 61q84 14 127 37q33 14 33 64v1012q0 45 -33 61l-121 37l15 80q113 -20 220 -20.5t222 20.5q47 -82 127 -199l426 -614q31 -47 57 -121l8 -25l11 8v766q0 45 -35 62q-23 12 -113 33l-24 6l14 84q158 -20 245 -20.5t226 20.5l14 -80q-78 -16 -115.5 -35.5t-37.5 -62.5 v-779q0 -160 12 -325l4 -56l-221 -43q-76 168 -234 394l-409 585q-35 49 -64 111l-10 22l-10 -8v-897q0 -31 8 -47t37 -25q27 -12 131 -32l33 -6l-17 -86q-141 18 -251.5 18t-258.5 -18zM467 1440q25 45 85 131t89 112l47 9q25 -4 117 -51.5t143 -47.5t123 82l66 -45 q-25 -43 -84.5 -118.5t-85.5 -98.5l-47 -8q-25 4 -117 47t-144.5 43t-128.5 -94z" />
<glyph unicode="&#xd2;" horiz-adv-x="1546" d="M66 637q0 313 191.5 520t515 207t516 -178t192.5 -491.5t-191.5 -520.5t-515 -207t-516 178.5t-192.5 491.5zM354 693q0 -251 113 -429t319.5 -178t306 150.5t99.5 401.5t-112.5 429t-319.5 178t-306.5 -150.5t-99.5 -401.5zM453 1636l10 60q115 33 213 39 q23 -12 119 -120t125 -145l-78 -77z" />
<glyph unicode="&#xd3;" horiz-adv-x="1546" d="M66 637q0 313 191.5 520t515 207t516 -178t192.5 -491.5t-191.5 -520.5t-515 -207t-516 178.5t-192.5 491.5zM354 693q0 -251 113 -429t319.5 -178t306 150.5t99.5 401.5t-112.5 429t-319.5 178t-306.5 -150.5t-99.5 -401.5zM588 1470q29 37 125 144.5t118 120.5 q98 -6 213 -39l11 -60l-389 -243z" />
<glyph unicode="&#xd4;" horiz-adv-x="1546" d="M66 637q0 313 191.5 520t515 207t516 -178t192.5 -491.5t-191.5 -520.5t-515 -207t-516 178.5t-192.5 491.5zM354 693q0 -251 113 -429t319.5 -178t306 150.5t99.5 401.5t-112.5 429t-319.5 178t-306.5 -150.5t-99.5 -401.5zM457 1473q14 27 95.5 135.5t106.5 126.5 q41 10 110 10t108 -10q25 -16 103.5 -124t96.5 -138l-88 -64l-221 182l-221 -182z" />
<glyph unicode="&#xd5;" horiz-adv-x="1546" d="M66 637q0 313 191.5 520t515 207t516 -178t192.5 -491.5t-191.5 -520.5t-515 -207t-516 178.5t-192.5 491.5zM354 693q0 -251 113 -429t319.5 -178t306 150.5t99.5 401.5t-112.5 429t-319.5 178t-306.5 -150.5t-99.5 -401.5zM432 1448q25 45 85.5 131t88.5 113l47 8 q25 -4 117 -51t143.5 -47t122.5 81l66 -45q-25 -43 -84.5 -118.5t-85.5 -98.5l-47 -8q-25 4 -117 47t-144.5 43t-127.5 -94z" />
<glyph unicode="&#xd6;" horiz-adv-x="1546" d="M66 637q0 313 191.5 520t515 207t516 -178t192.5 -491.5t-191.5 -520.5t-515 -207t-516 178.5t-192.5 491.5zM354 693q0 -251 113 -429t319.5 -178t306 150.5t99.5 401.5t-112.5 429t-319.5 178t-306.5 -150.5t-99.5 -401.5zM385 1544.5q0 61.5 42 99t111.5 37.5 t112.5 -37.5t43 -99t-43 -99.5t-111.5 -38t-111.5 38t-43 99.5zM842 1544.5q0 61.5 42 99t111.5 37.5t112.5 -37.5t43 -99t-43 -99.5t-111.5 -38t-111.5 38t-43 99.5z" />
<glyph unicode="&#xd7;" horiz-adv-x="966" d="M102 170l277 276l-277 277l105 104l276 -276l277 276l104 -104l-276 -277l276 -276l-104 -104l-277 276l-276 -276z" />
<glyph unicode="&#xd8;" horiz-adv-x="1587" d="M86 625.5q0 324.5 191.5 531.5t510.5 207q180 0 336 -61l90 129l78 -84l-67 -99q276 -176 276 -551q0 -317 -191.5 -524t-510.5 -207q-231 0 -404 92l-90 -129l-78 84l76 109q-217 178 -217 502.5zM375 714.5q0 -229.5 74 -382.5l575 825q-104 88 -254 88 q-197 0 -296 -150.5t-99 -380zM512 227q115 -141 312.5 -141t292.5 148.5t95 409.5t-112 427z" />
<glyph unicode="&#xd9;" horiz-adv-x="1482" d="M29 1270l14 80q141 -18 267 -18.5t268 18.5l14 -80q-131 -25 -146 -62q-6 -10 -6 -37v-661q0 -199 82 -292t250 -93t254 92t86 252v702q0 27 -5 38.5t-24 21.5q-33 18 -96 35l-22 4l14 80q104 -18 212.5 -18.5t231.5 18.5l15 -80q-131 -25 -148 -62q-4 -10 -4 -37v-669 q0 -260 -143.5 -395.5t-417.5 -135.5t-411.5 122t-137.5 384v694q0 27 -5 38.5t-24 21.5q-35 18 -98 35zM446 1636l11 60q115 33 213 39q23 -12 119 -120t124 -145l-77 -77z" />
<glyph unicode="&#xda;" horiz-adv-x="1482" d="M29 1270l14 80q141 -18 267 -18.5t268 18.5l14 -80q-131 -25 -146 -62q-6 -10 -6 -37v-661q0 -199 82 -292t250 -93t254 92t86 252v702q0 27 -5 38.5t-24 21.5q-33 18 -96 35l-22 4l14 80q104 -18 212.5 -18.5t231.5 18.5l15 -80q-131 -25 -148 -62q-4 -10 -4 -37v-669 q0 -260 -143.5 -395.5t-417.5 -135.5t-411.5 122t-137.5 384v694q0 27 -5 38.5t-24 21.5q-35 18 -98 35zM582 1470q29 37 125 144.5t118 120.5q98 -6 213 -39l11 -60l-390 -243z" />
<glyph unicode="&#xdb;" horiz-adv-x="1482" d="M29 1270l14 80q141 -18 267 -18.5t268 18.5l14 -80q-131 -25 -146 -62q-6 -10 -6 -37v-661q0 -199 82 -292t250 -93t254 92t86 252v702q0 27 -5 38.5t-24 21.5q-33 18 -96 35l-22 4l14 80q104 -18 212.5 -18.5t231.5 18.5l15 -80q-131 -25 -148 -62q-4 -10 -4 -37v-669 q0 -260 -143.5 -395.5t-417.5 -135.5t-411.5 122t-137.5 384v694q0 27 -5 38.5t-24 21.5q-35 18 -98 35zM451 1473q14 27 95.5 135.5t106.5 126.5q41 10 109.5 10t107.5 -10q25 -16 104 -124t97 -138l-88 -64l-221 182l-221 -182z" />
<glyph unicode="&#xdc;" horiz-adv-x="1482" d="M29 1270l14 80q141 -18 267 -18.5t268 18.5l14 -80q-131 -25 -146 -62q-6 -10 -6 -37v-661q0 -199 82 -292t250 -93t254 92t86 252v702q0 27 -5 38.5t-24 21.5q-33 18 -96 35l-22 4l14 80q104 -18 212.5 -18.5t231.5 18.5l15 -80q-131 -25 -148 -62q-4 -10 -4 -37v-669 q0 -260 -143.5 -395.5t-417.5 -135.5t-411.5 122t-137.5 384v694q0 27 -5 38.5t-24 21.5q-35 18 -98 35zM379 1544.5q0 61.5 42 99t111.5 37.5t112.5 -37.5t43 -99t-43 -99.5t-111.5 -38t-111.5 38t-43 99.5zM836 1544.5q0 61.5 42 99t111.5 37.5t112.5 -37.5t43 -99 t-43 -99.5t-111.5 -38t-111.5 38t-43 99.5z" />
<glyph unicode="&#xdd;" horiz-adv-x="1212" d="M-41 1352q143 -20 285.5 -20.5t314.5 20.5l-6 -78q-59 -12 -94 -31.5t-35 -51.5t16 -58l228 -396l217 398q20 35 20 58.5t-21.5 38.5t-131.5 42l-7 78q168 -20 252 -20.5t224 20.5l-9 -78q-63 -6 -102 -35t-76 -109l-321 -565v-405q0 -29 5 -40t23 -22q41 -20 119 -37 l29 -4l-19 -73q-154 16 -283.5 16t-271.5 -16l-16 75q150 25 164 60q6 12 6 41v401l-338 584q-35 72 -69.5 97.5t-94.5 31.5zM449 1470q29 37 125 144.5t118 120.5q98 -6 213 -39l10 -60l-389 -243z" />
<glyph unicode="&#xde;" horiz-adv-x="1120" d="M98 61q127 27 144 62q4 10 4 37v1011q0 27 -5 38.5t-24 21.5q-33 18 -98 35l-21 4l15 80q141 -18 267 -18.5t267 18.5l15 -80q-131 -27 -146 -62q-6 -10 -6 -37v-59q25 2 78 2q530 0 530 -356q0 -164 -135 -283t-301 -119q-27 0 -71 18.5t-64 33.5l-8 43l67 -9 q227 0 227.5 286t-247.5 286q-33 0 -76 -15v-839q0 -27 5 -38t26 -22q33 -18 98 -34l23 -5l-15 -79q-141 18 -267 18t-267 -18z" />
<glyph unicode="&#xdf;" horiz-adv-x="1220" d="M55 55q74 18 107 39t33 62v596h-115l-10 82l125 30v107q0 207 115.5 353t315 146t311.5 -110.5t112 -243.5q0 -88 -41 -157.5t-90.5 -104.5t-90.5 -72t-41 -64.5t9.5 -48t20.5 -34.5t37 -32.5t40 -27t51 -28.5q131 -74 185.5 -139.5t54.5 -165.5q0 -135 -99.5 -205 t-248 -70t-254.5 56q-4 33 -4 121.5t4 119.5l80 15q14 -94 61 -153.5t104 -59.5q117 0 117 122q0 74 -42 116t-118.5 85t-111.5 67.5t-70 82t-35 123t22.5 109.5t54.5 73.5t65 60.5q78 70 77.5 196t-48.5 188.5t-165 62.5q-70 0 -101.5 -78t-31.5 -187v-950q0 -27 6.5 -36 t28.5 -25l66 -31l-17 -61q-154 16 -218 16t-234 -16z" />
<glyph unicode="&#xe0;" d="M61 213q0 115 86 169t248 73l137 16v96q0 109 -23.5 162t-91 53t-120.5 -26q-12 -43 -12 -187l-127 -34q-59 184 -62 249q242 111 361 111q166 0 243.5 -72.5t77.5 -226.5v-408q0 -43 17.5 -57t56.5 -20l51 -5l19 -69q-111 -18 -277 -70q-86 51 -106 131 q-131 -131 -215 -131q-119 0 -191 65.5t-72 180.5zM197 1348l26 55q127 0 215 -19q18 -18 84 -145t84 -172l-96 -55zM307 229q0 -45 24.5 -76.5t78 -31.5t122.5 59v209l-106 -22q-119 -27 -119 -138z" />
<glyph unicode="&#xe1;" d="M61 213q0 115 86 169t248 73l137 16v96q0 109 -23.5 162t-91 53t-120.5 -26q-12 -43 -12 -187l-127 -34q-59 184 -62 249q242 111 361 111q166 0 243.5 -72.5t77.5 -226.5v-408q0 -43 17.5 -57t56.5 -20l51 -5l19 -69q-111 -18 -277 -70q-86 51 -106 131 q-131 -131 -215 -131q-119 0 -191 65.5t-72 180.5zM293 1067q18 45 83.5 172t84.5 145q88 19 215 19l26 -55l-313 -336zM307 229q0 -45 24.5 -76.5t78 -31.5t122.5 59v209l-106 -22q-119 -27 -119 -138z" />
<glyph unicode="&#xe2;" d="M61 213q0 115 86 169t248 73l137 16v96q0 109 -23.5 162t-91 53t-120.5 -26q-12 -43 -12 -187l-127 -34q-59 184 -62 249q242 111 361 111q166 0 243.5 -72.5t77.5 -226.5v-408q0 -43 17.5 -57t56.5 -20l51 -5l19 -69q-111 -18 -277 -70q-86 51 -106 131 q-131 -131 -215 -131q-119 0 -191 65.5t-72 180.5zM168 1067q16 37 87 165t91 146q68 10 115 10.5t102 -10.5q20 -18 91 -146t87 -165l-96 -55l-190 213l-191 -213zM307 229q0 -45 24.5 -76.5t78 -31.5t122.5 59v209l-106 -22q-119 -27 -119 -138z" />
<glyph unicode="&#xe3;" d="M61 213q0 115 86 169t248 73l137 16v96q0 109 -23.5 162t-91 53t-120.5 -26q-12 -43 -12 -187l-127 -34q-59 184 -62 249q242 111 361 111q166 0 243.5 -72.5t77.5 -226.5v-408q0 -43 17.5 -57t56.5 -20l51 -5l19 -69q-111 -18 -277 -70q-86 51 -106 131 q-131 -131 -215 -131q-119 0 -191 65.5t-72 180.5zM119 1085q25 45 85 131.5t89 112.5l47 8q25 -4 117 -51t143 -47t123 82l65 -45q-25 -43 -84 -119t-86 -98l-47 -8q-24 4 -116.5 47t-144.5 43t-128 -94zM307 229q0 -45 24.5 -76.5t78 -31.5t122.5 59v209l-106 -22 q-119 -27 -119 -138z" />
<glyph unicode="&#xe4;" d="M61 213q0 115 86 169t248 73l137 16v96q0 109 -23.5 162t-91 53t-120.5 -26q-12 -43 -12 -187l-127 -34q-59 184 -62 249q242 111 361 111q166 0 243.5 -72.5t77.5 -226.5v-408q0 -43 17.5 -57t56.5 -20l51 -5l19 -69q-111 -18 -277 -70q-86 51 -106 131 q-131 -131 -215 -131q-119 0 -191 65.5t-72 180.5zM72 1202.5q0 61.5 42 99t111.5 37.5t112.5 -37.5t43 -99t-43 -99.5t-111.5 -38t-111.5 38t-43 99.5zM307 229q0 -45 24.5 -76.5t78 -31.5t122.5 59v209l-106 -22q-119 -27 -119 -138zM528 1202.5q0 61.5 42 99t112 37.5 t113 -37.5t43 -99t-43 -99.5t-112 -38t-112 38t-43 99.5z" />
<glyph unicode="&#xe5;" d="M61 213q0 115 86 169t248 73l137 16v96q0 109 -23.5 162t-91 53t-120.5 -26q-12 -43 -12 -187l-127 -34q-59 184 -62 249q242 111 361 111q166 0 243.5 -72.5t77.5 -226.5v-408q0 -43 17.5 -57t56.5 -20l51 -5l19 -69q-111 -18 -277 -70q-86 51 -106 131 q-131 -131 -215 -131q-119 0 -191 65.5t-72 180.5zM244 1204q0 76 61.5 130.5t145.5 54.5t146 -54.5t62 -130.5t-62 -130t-146 -54t-145.5 54t-61.5 130zM307 229q0 -45 24.5 -76.5t78 -31.5t122.5 59v209l-106 -22q-119 -27 -119 -138zM367 1204q0 -39 24.5 -65.5t59 -26.5 t60.5 26.5t26 65.5t-26 65.5t-60.5 26.5t-59 -26.5t-24.5 -65.5z" />
<glyph unicode="&#xe6;" horiz-adv-x="1392" d="M61 213q0 115 86 169t246 73l168 20v92q0 102 -30.5 153.5t-108.5 51.5t-127 -27q-8 -39 -8 -161l-115 -29q-33 109 -47 229q221 111 330 111q193 0 270 -92q104 92 244 92q188 0 283.5 -114.5t95.5 -309.5l-545 -41q16 -313 237 -313q129 0 256 88l37 -55 q-193 -182 -360 -183q-223 0 -336 162q-182 -162 -308 -162t-197 65.5t-71 180.5zM313 229q0 -49 25.5 -83.5t64.5 -34.5q84 0 197 86q-39 90 -39 198l-137 -28q-111 -25 -111 -138zM803 524l278 39q0 96 -30.5 162t-100 66t-108.5 -79t-39 -188z" />
<glyph unicode="&#xe7;" horiz-adv-x="894" d="M63 428q0 190 120 328.5t323 138.5q66 0 173 -27.5t165 -50.5q-4 -45 -30 -150.5t-44 -146.5l-111 21q2 18 3 45q0 127 -23 168q-53 35 -150 34q-162 0 -161 -321q0 -168 65.5 -254t179 -86t242.5 74l41 -60q-168 -150 -307 -170l-35 -116q66 0 112 -46.5t46 -126 t-62.5 -132t-161 -52.5t-212.5 78l38 76q94 -47 160 -47q78 0 78 71q0 47 -35 67.5t-61.5 20.5t-48.5 -6l-37 54l90 161q-162 25 -259.5 145t-97.5 310z" />
<glyph unicode="&#xe8;" horiz-adv-x="921" d="M55 413.5q0 200.5 121 341t314.5 140.5t290 -118t96.5 -316l-558 -37q17 -297 244 -297q129 0 256 88l43 -65q-197 -182 -366 -183q-201 0 -321 123t-120 323.5zM233 1348l27 55q127 0 215 -19q18 -18 84 -145t84 -172l-96 -55zM319 522l291 41q0 227 -135 228 q-76 0 -116 -79t-40 -190z" />
<glyph unicode="&#xe9;" horiz-adv-x="921" d="M55 413.5q0 200.5 121 341t314.5 140.5t290 -118t96.5 -316l-558 -37q17 -297 244 -297q129 0 256 88l43 -65q-197 -182 -366 -183q-201 0 -321 123t-120 323.5zM319 522l291 41q0 227 -135 228q-76 0 -116 -79t-40 -190zM330 1067q18 45 83.5 172t84.5 145q88 19 215 19 l26 -55l-313 -336z" />
<glyph unicode="&#xea;" horiz-adv-x="921" d="M55 413.5q0 200.5 121 341t314.5 140.5t290 -118t96.5 -316l-558 -37q17 -297 244 -297q129 0 256 88l43 -65q-197 -182 -366 -183q-201 0 -321 123t-120 323.5zM205 1067q16 37 87 165t91 146q68 10 115 10.5t102 -10.5q20 -18 91 -146t87 -165l-96 -55l-190 213 l-191 -213zM319 522l291 41q0 227 -135 228q-76 0 -116 -79t-40 -190z" />
<glyph unicode="&#xeb;" horiz-adv-x="921" d="M55 413.5q0 200.5 121 341t314.5 140.5t290 -118t96.5 -316l-558 -37q17 -297 244 -297q129 0 256 88l43 -65q-197 -182 -366 -183q-201 0 -321 123t-120 323.5zM109 1202.5q0 61.5 42 99t111.5 37.5t112.5 -37.5t43 -99t-43 -99.5t-111.5 -38t-111.5 38t-43 99.5z M319 522l291 41q0 227 -135 228q-76 0 -116 -79t-40 -190zM565 1202.5q0 61.5 42 99t111.5 37.5t112.5 -37.5t43 -99t-43 -99.5t-111.5 -38t-111.5 38t-43 99.5z" />
<glyph unicode="&#xec;" horiz-adv-x="610" d="M37 1348l26 55q127 0 216 -19q18 -18 83.5 -145t83.5 -172l-96 -55zM55 807q74 31 195 59.5t186 28.5l41 -47q-33 -87 -33 -191v-501q0 -27 5.5 -37t25.5 -21q37 -23 109 -43l-15 -73q-176 18 -247.5 18t-245.5 -18l-17 73q74 16 109 41q31 18 31 60v512q0 72 -56 71 l-71 -14z" />
<glyph unicode="&#xed;" horiz-adv-x="610" d="M55 807q74 31 195 59.5t186 28.5l41 -47q-33 -87 -33 -191v-501q0 -27 5.5 -37t25.5 -21q37 -23 109 -43l-15 -73q-176 18 -247.5 18t-245.5 -18l-17 73q74 16 109 41q31 18 31 60v512q0 72 -56 71l-71 -14zM133 1067q18 45 84 172t84 145q88 19 215 19l27 -55l-314 -336 z" />
<glyph unicode="&#xee;" horiz-adv-x="610" d="M8 1067q16 37 87 165t91 146q68 10 115 10.5t102 -10.5q20 -18 91 -146t88 -165l-97 -55l-190 213l-191 -213zM55 807q74 31 195 59.5t186 28.5l41 -47q-33 -87 -33 -191v-501q0 -27 5.5 -37t25.5 -21q37 -23 109 -43l-15 -73q-176 18 -247.5 18t-245.5 -18l-17 73 q74 16 109 41q31 18 31 60v512q0 72 -56 71l-71 -14z" />
<glyph unicode="&#xef;" horiz-adv-x="610" d="M-88 1202.5q0 61.5 42 99t111.5 37.5t112.5 -37.5t43 -99t-43 -99.5t-111.5 -38t-111.5 38t-43 99.5zM55 807q74 31 195 59.5t186 28.5l41 -47q-33 -87 -33 -191v-501q0 -27 5.5 -37t25.5 -21q37 -23 109 -43l-15 -73q-176 18 -247.5 18t-245.5 -18l-17 73q74 16 109 41 q31 18 31 60v512q0 72 -56 71l-71 -14zM369 1202.5q0 61.5 42 99t111.5 37.5t112.5 -37.5t43 -99t-43 -99.5t-111.5 -38t-111.5 38t-43 99.5z" />
<glyph unicode="&#xf0;" horiz-adv-x="942" d="M-25 410.5q0 205.5 126 340t331 134.5q41 0 90 -18.5t68 -39.5q-37 197 -123 326l-207 -119l-33 96l176 103q-121 127 -294 160l10 77q229 -10 428 -155l233 135l33 -96l-186 -109q266 -252 266 -651q0 -451 -229 -576q-94 -51 -230 -51q-221 0 -340 119t-119 324.5z M240 449q0 -182 58 -279.5t163 -97.5q156 0 155 331q0 168 -14 242q-61 125 -199 125q-163 1 -163 -321z" />
<glyph unicode="&#xf1;" horiz-adv-x="1173" d="M41 803q68 31 170 58.5t168 33.5l43 -47q0 -41 20 -98l68 55q109 90 199 90q150 0 226.5 -72.5t76.5 -236.5v-430q0 -27 5 -37t23 -21q39 -23 111 -43l-16 -73q-203 18 -230.5 18t-238.5 -18l-15 71q51 16 84 39q31 23 31 60v393q0 102 -32 148t-104.5 46t-185.5 -80 v-507q0 -61 117 -99l-14 -71q-211 18 -237.5 18t-229.5 -18l-21 73q74 16 107 37t33 64v512q0 70 -54 69l-94 -12zM264 1085q25 45 85.5 131.5t88.5 112.5l47 8q25 -4 117 -51t143.5 -47t122.5 82l66 -45q-25 -43 -84 -119t-86 -98l-47 -8q-25 4 -117 47t-144.5 43 t-127.5 -94z" />
<glyph unicode="&#xf2;" horiz-adv-x="1044" d="M63 410.5q0 205.5 126 340t338 134.5t333 -120t121 -323.5t-128 -339t-339 -135.5t-331 119t-120 324.5zM281 1346l26 55q127 0 215 -19q18 -18 84 -145t84 -172l-96 -55zM328 449q0 -182 58 -279.5t163 -97.5q168 0 168 331q0 182 -59.5 279.5t-165.5 97.5 q-164 1 -164 -331z" />
<glyph unicode="&#xf3;" horiz-adv-x="1044" d="M63 410.5q0 205.5 126 340t338 134.5t333 -120t121 -323.5t-128 -339t-339 -135.5t-331 119t-120 324.5zM328 449q0 -182 58 -279.5t163 -97.5q168 0 168 331q0 182 -59.5 279.5t-165.5 97.5q-164 1 -164 -331zM377 1065q18 45 83.5 172t84.5 145q88 19 215 19l26 -55 l-313 -336z" />
<glyph unicode="&#xf4;" horiz-adv-x="1044" d="M63 410.5q0 205.5 126 340t338 134.5t333 -120t121 -323.5t-128 -339t-339 -135.5t-331 119t-120 324.5zM252 1065q16 37 87 165t91 146q68 10 115 10t102 -10q20 -18 91 -146t87 -165l-96 -55l-190 213l-191 -213zM328 449q0 -182 58 -279.5t163 -97.5q168 0 168 331 q0 182 -59.5 279.5t-165.5 97.5q-164 1 -164 -331z" />
<glyph unicode="&#xf5;" horiz-adv-x="1044" d="M63 410.5q0 205.5 126 340t338 134.5t333 -120t121 -323.5t-128 -339t-339 -135.5t-331 119t-120 324.5zM203 1083q25 45 85 131t89 113l47 8q25 -4 117 -51t143 -47t123 82l65 -45q-25 -43 -84 -119t-86 -98l-47 -8q-24 4 -116.5 47t-144.5 43t-128 -95zM328 449 q0 -182 58 -279.5t163 -97.5q168 0 168 331q0 182 -59.5 279.5t-165.5 97.5q-164 1 -164 -331z" />
<glyph unicode="&#xf6;" horiz-adv-x="1044" d="M63 410.5q0 205.5 126 340t338 134.5t333 -120t121 -323.5t-128 -339t-339 -135.5t-331 119t-120 324.5zM156 1200.5q0 61.5 42 99t111.5 37.5t112.5 -37.5t43 -99t-43 -99.5t-111.5 -38t-111.5 38t-43 99.5zM328 449q0 -182 58 -279.5t163 -97.5q168 0 168 331 q0 182 -59.5 279.5t-165.5 97.5q-164 1 -164 -331zM612 1200.5q0 61.5 42 99t112 37.5t113 -37.5t43 -99t-43 -99.5t-112 -38t-112 38t-43 99.5z" />
<glyph unicode="&#xf7;" horiz-adv-x="950" d="M88 381v156h774v-156h-774zM332 158.5q0 56.5 39 90.5t102.5 34t103 -34t39.5 -90.5t-39.5 -91t-102 -34.5t-102.5 34.5t-40 91zM332 760q0 55 39 90t102.5 35t103 -35t39.5 -91.5t-39.5 -90t-102 -33.5t-102.5 35t-40 90z" />
<glyph unicode="&#xf8;" horiz-adv-x="1069" d="M72 408q0 213 126 350t330 137q117 0 211 -41l86 123l76 -80l-67 -98q164 -125 163.5 -341t-136.5 -353.5t-331 -137.5q-139 0 -241 51l-80 -114l-76 80l66 94q-127 117 -127 330zM336 449q0 -86 12 -154l305 438q-53 57 -146 57.5t-132 -78.5t-39 -263zM393 168 q57 -94 163 -94t141.5 75.5t35.5 229t-22 244.5z" />
<glyph unicode="&#xf9;" horiz-adv-x="1126" d="M16 807q74 31 195 59.5t186 28.5l41 -47q-33 -86 -32 -191v-340q0 -102 31.5 -148t104 -46t169.5 74v471q0 72 -56 71l-71 -14l-17 82q74 31 195 59.5t186 28.5l41 -47q-33 -87 -33 -191v-462q0 -53 33 -68q27 -18 109 -18l16 -70q-182 -33 -291 -72q-106 66 -106 144 q-152 -143 -254 -144q-147 0 -225 72t-78 237v392q0 72 -56 71l-71 -14zM295 1348l27 55q127 0 215 -19q18 -18 83.5 -145t84.5 -172l-97 -55z" />
<glyph unicode="&#xfa;" horiz-adv-x="1126" d="M16 807q74 31 195 59.5t186 28.5l41 -47q-33 -86 -32 -191v-340q0 -102 31.5 -148t104 -46t169.5 74v471q0 72 -56 71l-71 -14l-17 82q74 31 195 59.5t186 28.5l41 -47q-33 -87 -33 -191v-462q0 -53 33 -68q27 -18 109 -18l16 -70q-182 -33 -291 -72q-106 66 -106 144 q-152 -143 -254 -144q-147 0 -225 72t-78 237v392q0 72 -56 71l-71 -14zM391 1067q18 45 84 172t84 145q88 19 215 19l27 -55l-314 -336z" />
<glyph unicode="&#xfb;" horiz-adv-x="1126" d="M16 807q74 31 195 59.5t186 28.5l41 -47q-33 -86 -32 -191v-340q0 -102 31.5 -148t104 -46t169.5 74v471q0 72 -56 71l-71 -14l-17 82q74 31 195 59.5t186 28.5l41 -47q-33 -87 -33 -191v-462q0 -53 33 -68q27 -18 109 -18l16 -70q-182 -33 -291 -72q-106 66 -106 144 q-152 -143 -254 -144q-147 0 -225 72t-78 237v392q0 72 -56 71l-71 -14zM266 1067q16 37 87 165t91 146q68 10 115 10.5t103 -10.5q20 -18 90.5 -146t87.5 -165l-97 -55l-190 213l-191 -213z" />
<glyph unicode="&#xfc;" horiz-adv-x="1126" d="M16 807q74 31 195 59.5t186 28.5l41 -47q-33 -86 -32 -191v-340q0 -102 31.5 -148t104 -46t169.5 74v471q0 72 -56 71l-71 -14l-17 82q74 31 195 59.5t186 28.5l41 -47q-33 -87 -33 -191v-462q0 -53 33 -68q27 -18 109 -18l16 -70q-182 -33 -291 -72q-106 66 -106 144 q-152 -143 -254 -144q-147 0 -225 72t-78 237v392q0 72 -56 71l-71 -14zM170 1202.5q0 61.5 42 99t111.5 37.5t112.5 -37.5t43 -99t-43 -99.5t-111.5 -38t-111.5 38t-43 99.5zM627 1202.5q0 61.5 42 99t111.5 37.5t112.5 -37.5t43 -99t-43 -99.5t-111.5 -38t-111.5 38 t-43 99.5z" />
<glyph unicode="&#xfd;" horiz-adv-x="952" d="M-39 879q164 -16 235.5 -16.5t256.5 16.5l-9 -72q-4 -2 -21 -6t-28.5 -7t-25.5 -8q-29 -12 -29 -30q0 -14 8 -43l180 -461l177 469q6 18 6 35q0 37 -109 49l-4 72q100 -14 168 -14.5t223 14.5l-14 -76q-49 -2 -68.5 -17.5t-40.5 -62.5l-430 -1006q-92 -215 -293 -215h-34 q-49 84 -76 240l47 29q59 -37 104 -37q96 0 148 88l69 162l-313 731q-25 55 -43 69.5t-70 20.5zM332 1067q18 45 83.5 172t84.5 145q88 19 215 19l26 -55l-313 -336z" />
<glyph unicode="&#xfe;" horiz-adv-x="1054" d="M-12 -444q74 16 106.5 36.5t32.5 63.5v1597q0 37 -10.5 52.5t-40.5 15.5l-76 -10l-12 78q70 27 185.5 52t184.5 29l41 -47q-27 -51 -26 -190v-449q133 111 245 111q184 0 278.5 -114.5t94.5 -321.5t-132 -349.5t-337 -142.5q-63 0 -149 15v-330q0 -39 33 -62 q47 -20 122 -32l23 -4l-14 -72q-190 18 -258 18t-271 -18zM373 219q0 -61 44 -99t120.5 -38t133 86t56.5 254q1 321 -192 321q-80 0 -142 -38l-20 -15v-471z" />
<glyph unicode="&#xff;" horiz-adv-x="954" d="M-39 879q164 -16 235.5 -16.5t256.5 16.5l-9 -72q-4 -2 -21 -6t-28.5 -7t-25.5 -8q-29 -12 -29 -30q0 -14 8 -43l180 -461l177 469q6 18 6 35q0 37 -109 49l-4 72q100 -14 168 -14.5t223 14.5l-14 -76q-49 -2 -68.5 -17.5t-40.5 -62.5l-430 -1006q-92 -215 -293 -215h-34 q-49 84 -76 240l47 29q59 -37 104 -37q96 0 148 88l69 162l-313 731q-25 55 -43 69.5t-70 20.5zM111 1202.5q0 61.5 42 99t111.5 37.5t112.5 -37.5t43 -99t-43 -99.5t-111.5 -38t-111.5 38t-43 99.5zM567 1202.5q0 61.5 42 99t112 37.5t113 -37.5t43 -99t-43 -99.5t-112 -38 t-112 38t-43 99.5z" />
<glyph unicode="&#x152;" horiz-adv-x="1937" d="M82 631.5q0 314.5 183.5 523.5t488.5 209q80 0 137 -14q144 -19 201 -19h514q102 0 178 12v-321l-107 -18q-29 158 -65 200h-348v-450h204q51 0 68 30q12 23 29 93l6 22l88 -12q-16 -109 -16.5 -201t16.5 -207l-88 -12q-18 90 -33.5 124t-69.5 34h-204v-496h368 q27 23 63 103.5t50 132.5l102 -17q-2 -61 -15 -184t-26 -164h-714q-70 0 -199 -14l-2 -2q-61 -16 -127 -17q-313 0 -497.5 175t-184.5 489.5zM371 707q0 -359 178 -523q96 -88 229 -88t221 45v1016q-111 88 -264 88q-182 0 -273 -150.5t-91 -387.5z" />
<glyph unicode="&#x153;" horiz-adv-x="1505" d="M63 413q0 208 123 345t314.5 137t290.5 -131q115 141 297 141t277 -114.5t95 -309.5l-545 -41q17 -323 238 -323q129 0 256 88l37 -55q-193 -182 -374 -182.5t-298 128.5q-102 -129 -262 -129q-215 0 -332 119t-117 327zM328 449q0 -182 55 -279.5t156 -97.5 q129 0 135 307v24q0 186 -50.5 287t-142.5 101q-153 0 -153 -342zM915 535l279 38q0 97 -30.5 162.5t-100.5 65.5t-109 -79t-39 -187z" />
<glyph unicode="&#x178;" horiz-adv-x="1245" d="M-8 1352q143 -20 285.5 -20.5t314.5 20.5l-6 -78q-59 -12 -94 -31.5t-35 -51.5t16 -58l227 -396l218 398q20 35 20 58.5t-21.5 38.5t-132.5 42l-6 78q168 -20 252 -20.5t223 20.5l-8 -78q-63 -6 -102 -35t-76 -109l-322 -565v-405q0 -29 5.5 -40t23.5 -22q41 -20 119 -37 l29 -4l-19 -73q-154 16 -284 16t-271 -16l-16 75q150 25 164 60q6 12 6 41v401l-338 584q-35 72 -70 97.5t-94 31.5zM279 1558.5q0 61.5 41.5 99.5t111.5 38t113 -38t43 -99.5t-43 -99.5t-111.5 -38t-111.5 38t-43 99.5zM735 1558.5q0 61.5 42 99.5t111.5 38t112.5 -38 t43 -99.5t-43 -99.5t-111.5 -38t-111.5 38t-43 99.5z" />
<glyph unicode="&#x2c6;" horiz-adv-x="659" d="M43 1067q16 37 87 165t91 146q68 10 115 10.5t102 -10.5q20 -18 91 -146t87 -165l-96 -55l-190 213l-191 -213z" />
<glyph unicode="&#x2dc;" horiz-adv-x="907" d="M117 1085q25 45 85 131.5t89 112.5l47 8q25 -4 117 -51t143 -47t123 82l65 -45q-25 -43 -84 -119t-86 -98l-47 -8q-24 4 -116.5 47t-144.5 43t-128 -94z" />
<glyph unicode="&#x2000;" horiz-adv-x="876" />
<glyph unicode="&#x2001;" horiz-adv-x="1753" />
<glyph unicode="&#x2002;" horiz-adv-x="876" />
<glyph unicode="&#x2003;" horiz-adv-x="1753" />
<glyph unicode="&#x2004;" horiz-adv-x="584" />
<glyph unicode="&#x2005;" horiz-adv-x="438" />
<glyph unicode="&#x2006;" horiz-adv-x="292" />
<glyph unicode="&#x2007;" horiz-adv-x="292" />
<glyph unicode="&#x2008;" horiz-adv-x="219" />
<glyph unicode="&#x2009;" horiz-adv-x="350" />
<glyph unicode="&#x200a;" horiz-adv-x="97" />
<glyph unicode="&#x2010;" horiz-adv-x="645" d="M68 379l30 182h480l-29 -182h-481z" />
<glyph unicode="&#x2011;" horiz-adv-x="645" d="M68 379l30 182h480l-29 -182h-481z" />
<glyph unicode="&#x2012;" horiz-adv-x="645" d="M68 379l30 182h480l-29 -182h-481z" />
<glyph unicode="&#x2013;" horiz-adv-x="1181" d="M-10 387l20 166h1182l-21 -166h-1181z" />
<glyph unicode="&#x2014;" horiz-adv-x="1716" d="M-10 387l20 166h1716l-20 -166h-1716z" />
<glyph unicode="&#x2018;" horiz-adv-x="503" d="M74 1001.5q0 71.5 98 200.5t188 207l62 -51q-143 -190 -143 -266q0 -27 28.5 -39.5t93.5 -16.5l29 -61q-20 -35 -68.5 -81t-87.5 -69q-71 6 -135.5 55.5t-64.5 121z" />
<glyph unicode="&#x2019;" horiz-adv-x="503" d="M74 1253q20 35 68 81t87 69q70 -4 135.5 -57.5t65.5 -125t-97 -196.5t-190 -205l-61 51q143 190 143 267q0 27 -28.5 39t-94.5 16z" />
<glyph unicode="&#x201a;" horiz-adv-x="503" d="M74 86q20 35 68 81t87 69q70 -5 135.5 -58t65.5 -124.5t-97 -196.5t-190 -205l-61 51q143 190 143 266q0 27 -28.5 39t-94.5 17z" />
<glyph unicode="&#x201c;" horiz-adv-x="933" d="M74 1001.5q0 71.5 97 200.5t187 207l64 -51q-143 -190 -143 -266q0 -27 28.5 -39.5t93.5 -16.5l27 -61q-20 -35 -67.5 -80t-86.5 -70q-71 6 -135.5 55.5t-64.5 121zM506 1001.5q0 71.5 97 200.5t188 207l61 -51q-143 -190 -143 -266q0 -27 28.5 -39.5t93.5 -16.5l29 -61 q-20 -35 -68.5 -81t-86.5 -69q-70 6 -134.5 55.5t-64.5 121z" />
<glyph unicode="&#x201d;" horiz-adv-x="933" d="M74 1253q20 35 68 81t87 69q70 -6 134.5 -55.5t64.5 -121t-97.5 -200.5t-187.5 -207l-61 51q143 190 143 267q0 27 -28.5 39t-94.5 16zM506 1253q20 35 67.5 80t85.5 70q72 -6 136.5 -55.5t64.5 -121t-97 -200.5t-188 -207l-63 51q143 190 143 267q0 27 -28.5 39 t-94.5 16z" />
<glyph unicode="&#x201e;" horiz-adv-x="933" d="M74 86q20 35 68 81t87 69q70 -7 134.5 -56t64.5 -120.5t-97.5 -200.5t-187.5 -207l-61 51q143 190 143 266q0 49 -123 56zM506 86q20 35 67.5 80t85.5 70q72 -7 136.5 -56t64.5 -120.5t-97 -200.5t-188 -207l-63 51q143 190 143 266q0 49 -123 56z" />
<glyph unicode="&#x2022;" horiz-adv-x="903" d="M168 563.5q0 149.5 63.5 229t207 79.5t220 -85t76.5 -233t-65.5 -221t-210 -73t-218 77t-73.5 226.5z" />
<glyph unicode="&#x2026;" horiz-adv-x="1759" d="M133 108.5q0 61.5 42 99.5t111.5 38t112.5 -38t43 -99.5t-43 -99.5t-111.5 -38t-111.5 38t-43 99.5zM725 108.5q0 61.5 42 99.5t111.5 38t112.5 -38t43 -99.5t-43 -99.5t-111.5 -38t-111.5 38t-43 99.5zM1317 108.5q0 61.5 42 99.5t111.5 38t112.5 -38t43 -99.5 t-43 -99.5t-111.5 -38t-111.5 38t-43 99.5z" />
<glyph unicode="&#x202f;" horiz-adv-x="350" />
<glyph unicode="&#x2039;" horiz-adv-x="620" d="M78 401v70l383 352l61 -59l-200 -328l200 -327l-61 -60z" />
<glyph unicode="&#x203a;" horiz-adv-x="620" d="M98 109l201 327l-201 328l62 59l383 -352v-70l-383 -352z" />
<glyph unicode="&#x205f;" horiz-adv-x="438" />
<glyph unicode="&#x20ac;" horiz-adv-x="1361" d="M72 469l20 106h111q0 39 8 109h-105l21 107h106q63 211 233.5 334.5t414.5 123.5q104 0 172 -12q80 -14 221 -47q-16 -207 -49 -332l-103 -18q-23 193 -63 252q-76 49 -210 49t-225.5 -92.5t-121.5 -257.5h344l-21 -107h-336q-2 -23 -2 -68v-41h324l-20 -106h-289 q35 -172 135 -282.5t235.5 -110.5t194.5 65.5t96 225.5l103 -11q-2 -125 -39 -327q-184 -61 -363 -62q-266 0 -445 135.5t-210 366.5h-137z" />
<glyph unicode="&#x25fc;" horiz-adv-x="880" d="M0 0v881h881v-881h-881z" />
</font>
</defs>
</svg>
